<svg width="178" height="63" viewBox="0 0 178 63" fill="none" xmlns="http://www.w3.org/2000/svg">
<rect opacity="0.3" x="0.600304" y="0.600304" width="176.489" height="61.231" rx="9.00456" stroke="white" stroke-width="1.20061"/>
<path d="M75.475 25.7715C75.475 26.6791 75.3237 27.4427 75.0212 28.0622C74.7186 28.6673 74.2936 29.1644 73.7461 29.5534C73.213 29.928 72.5791 30.2017 71.8443 30.3746C71.1096 30.5331 70.3028 30.6123 69.4239 30.6123C69.0781 30.6123 68.7036 30.6051 68.3002 30.5907C67.8967 30.5619 67.551 30.5331 67.2628 30.5043V36.5769C67.2628 36.6922 67.2268 36.793 67.1548 36.8795C67.0827 36.9659 66.9891 37.0092 66.8738 37.0092H65.7068C65.5916 37.0092 65.4979 36.9659 65.4259 36.8795C65.3539 36.793 65.3178 36.6922 65.3178 36.5769V21.5141C65.3178 21.1971 65.4907 21.0171 65.8365 20.9738C66.2975 20.9162 66.8522 20.873 67.5005 20.8442C68.1489 20.8154 68.79 20.8009 69.4239 20.8009C70.3028 20.8009 71.1096 20.8874 71.8443 21.0603C72.5791 21.2188 73.213 21.4853 73.7461 21.8599C74.2936 22.2201 74.7186 22.7027 75.0212 23.3078C75.3237 23.8985 75.475 24.6261 75.475 25.4905V25.7715ZM73.5084 25.4905C73.5084 24.3956 73.177 23.6176 72.5143 23.1565C71.8515 22.6955 70.8214 22.465 69.4239 22.465C69.0926 22.465 68.7108 22.4722 68.2785 22.4866C67.8607 22.501 67.5222 22.5226 67.2628 22.5514V28.8834C67.3925 28.8834 67.551 28.8906 67.7383 28.9051C67.9256 28.9195 68.1201 28.9339 68.3218 28.9483C68.5235 28.9483 68.718 28.9555 68.9053 28.9699C69.107 28.9699 69.2798 28.9699 69.4239 28.9699C70.9079 28.9699 71.9596 28.7178 72.5791 28.2135C73.1986 27.7092 73.5084 26.8952 73.5084 25.7715V25.4905ZM80.03 36.5769C80.03 36.6922 79.994 36.793 79.9219 36.8795C79.8499 36.9659 79.7563 37.0092 79.641 37.0092H78.5172C78.402 37.0092 78.3083 36.9659 78.2363 36.8795C78.1643 36.793 78.1282 36.6922 78.1282 36.5769V21.1683C78.1282 21.0531 78.1643 20.9594 78.2363 20.8874C78.3083 20.8009 78.402 20.7577 78.5172 20.7577H79.641C79.7563 20.7577 79.8499 20.8009 79.9219 20.8874C79.994 20.9594 80.03 21.0531 80.03 21.1683V36.5769ZM91.4652 36.5769C91.4652 36.6922 91.422 36.793 91.3356 36.8795C91.2491 36.9659 91.1483 37.0092 91.033 37.0092H90.0389C89.9236 37.0092 89.8228 36.9659 89.7363 36.8795C89.6499 36.793 89.6067 36.6922 89.6067 36.5769V36.1015C89.088 36.404 88.555 36.6562 88.0075 36.8579C87.46 37.0596 86.8837 37.1604 86.2786 37.1604C85.8176 37.1604 85.3709 37.11 84.9387 37.0092C84.5209 36.8939 84.1463 36.6994 83.815 36.4257C83.498 36.1519 83.2387 35.7917 83.037 35.3451C82.8497 34.8985 82.756 34.3366 82.756 33.6595V33.4001C82.756 32.8238 82.8425 32.3196 83.0153 31.8874C83.2026 31.4407 83.498 31.0733 83.9014 30.7852C84.3192 30.4827 84.8595 30.2593 85.5222 30.1153C86.185 29.9712 86.999 29.8992 87.9643 29.8992H89.5635V29.0347C89.5635 28.1271 89.3906 27.4931 89.0448 27.133C88.699 26.7728 88.1011 26.5927 87.2511 26.5927C86.5451 26.5927 85.9256 26.6143 85.3925 26.6575C84.8595 26.6863 84.3768 26.7223 83.9446 26.7656H83.8366C83.7357 26.7656 83.6421 26.744 83.5556 26.7007C83.4836 26.6575 83.4476 26.5639 83.4476 26.4198V25.6634C83.4476 25.4329 83.5988 25.296 83.9014 25.2528C84.348 25.1808 84.8307 25.1159 85.3493 25.0583C85.8824 25.0007 86.5163 24.9719 87.2511 24.9719C88.7494 24.9719 89.8228 25.332 90.4711 26.0524C91.1339 26.7728 91.4652 27.7669 91.4652 29.0347V36.5769ZM89.5635 31.2606H87.9643C87.3159 31.2606 86.7756 31.3039 86.3434 31.3903C85.9112 31.4623 85.5726 31.5848 85.3277 31.7577C85.0828 31.9162 84.9099 32.1323 84.8091 32.406C84.7082 32.6654 84.6578 32.9895 84.6578 33.3785V33.6378C84.6578 34.4158 84.8307 34.9417 85.1764 35.2154C85.5222 35.4748 86.0121 35.6044 86.646 35.6044C87.1502 35.6044 87.6329 35.5324 88.0939 35.3883C88.555 35.2443 89.0448 35.0282 89.5635 34.74V31.2606ZM103.137 25.4905C103.137 25.5626 103.13 25.613 103.116 25.6418L99.5497 38.0897C99.3769 38.6804 99.1896 39.1775 98.9879 39.5809C98.8006 39.9843 98.5556 40.3084 98.2531 40.5533C97.9505 40.8127 97.5831 41 97.1509 41.1152C96.7331 41.2305 96.2145 41.2881 95.5949 41.2881C95.2924 41.2881 94.9682 41.2665 94.6224 41.2233C94.2911 41.1945 94.0101 41.1513 93.7796 41.0936C93.65 41.0648 93.5419 41.0288 93.4555 40.9856C93.369 40.9423 93.3258 40.8631 93.3258 40.7478V39.9482C93.3258 39.7177 93.4627 39.6025 93.7364 39.6025H93.8012C94.0462 39.6313 94.3631 39.6601 94.7521 39.6889C95.1555 39.7177 95.4797 39.7321 95.7246 39.7321C96.0272 39.7321 96.2937 39.7033 96.5242 39.6457C96.7547 39.6025 96.9492 39.5088 97.1077 39.3647C97.2806 39.2351 97.4247 39.0478 97.5399 38.8029C97.6696 38.5723 97.7776 38.2698 97.8641 37.8952L98.0802 37.0092H97.7776C97.6192 37.0092 97.4607 36.9947 97.3022 36.9659C97.1581 36.9371 97.0141 36.8723 96.87 36.7714C96.7403 36.6706 96.6179 36.5193 96.5026 36.3176C96.3873 36.1159 96.2793 35.8494 96.1784 35.518L93.3042 25.6418C93.2898 25.613 93.2826 25.5626 93.2826 25.4905C93.2826 25.2456 93.4122 25.1231 93.6716 25.1231H94.8602C94.9466 25.1231 95.0186 25.1592 95.0763 25.2312C95.1483 25.3032 95.1987 25.3825 95.2276 25.4689L97.7776 34.8481C97.8353 35.0642 97.9001 35.201 97.9721 35.2587C98.0442 35.3019 98.1162 35.3235 98.1883 35.3235H98.534L101.171 25.4473C101.199 25.3609 101.25 25.2888 101.322 25.2312C101.394 25.1592 101.48 25.1231 101.581 25.1231H102.791C103.022 25.1231 103.137 25.2456 103.137 25.4905ZM120.129 32.8382C120.129 33.3569 120.05 33.8756 119.891 34.3942C119.733 34.9129 119.452 35.3811 119.048 35.7989C118.659 36.2023 118.119 36.5337 117.427 36.793C116.736 37.038 115.857 37.1604 114.791 37.1604C114.027 37.1604 113.357 37.1244 112.781 37.0524C112.205 36.9947 111.679 36.9299 111.203 36.8579C111.016 36.8291 110.901 36.7858 110.858 36.7282C110.814 36.6706 110.793 36.5841 110.793 36.4689V35.6044C110.793 35.4892 110.829 35.4027 110.901 35.3451C110.973 35.2875 111.059 35.2587 111.16 35.2587H111.225C111.47 35.2875 111.744 35.3091 112.046 35.3235C112.363 35.3379 112.68 35.3523 112.997 35.3667C113.329 35.3667 113.645 35.3739 113.948 35.3883C114.265 35.3883 114.546 35.3883 114.791 35.3883C115.439 35.3883 115.972 35.3307 116.39 35.2154C116.822 35.0858 117.161 34.9129 117.406 34.6968C117.651 34.4663 117.824 34.1925 117.924 33.8756C118.025 33.5586 118.076 33.2128 118.076 32.8382C118.076 32.5645 118.033 32.3196 117.946 32.1035C117.86 31.873 117.716 31.6496 117.514 31.4335C117.312 31.2174 117.046 30.9941 116.714 30.7636C116.383 30.5187 115.972 30.2449 115.482 29.9424L113.386 28.6673C112.392 28.0622 111.643 27.4571 111.139 26.852C110.649 26.2325 110.404 25.4905 110.404 24.6261C110.404 23.315 110.85 22.3497 111.744 21.7302C112.637 21.1107 113.912 20.8009 115.569 20.8009C115.886 20.8009 116.217 20.8082 116.563 20.8226C116.923 20.837 117.269 20.8586 117.6 20.8874C117.946 20.9018 118.27 20.9306 118.573 20.9738C118.875 21.0026 119.127 21.0315 119.329 21.0603C119.574 21.1035 119.697 21.226 119.697 21.4277V22.3569C119.697 22.5875 119.574 22.7027 119.329 22.7027H119.286C118.81 22.6739 118.227 22.6451 117.535 22.6163C116.858 22.5875 116.203 22.573 115.569 22.573C114.445 22.573 113.631 22.7171 113.127 23.0053C112.637 23.2934 112.392 23.8337 112.392 24.6261C112.392 25.1303 112.579 25.5698 112.954 25.9444C113.329 26.3189 113.926 26.7512 114.748 27.241L116.736 28.4296C117.355 28.8042 117.881 29.1644 118.313 29.5102C118.746 29.8559 119.099 30.2017 119.372 30.5475C119.646 30.8933 119.841 31.2534 119.956 31.628C120.071 32.0026 120.129 32.406 120.129 32.8382ZM128.141 36.685C128.141 36.8867 128.011 37.0092 127.752 37.0524C127.536 37.0812 127.298 37.1028 127.039 37.1172C126.779 37.146 126.549 37.1604 126.347 37.1604C125.843 37.1604 125.403 37.1172 125.029 37.0308C124.669 36.9587 124.366 36.8147 124.121 36.5985C123.891 36.3824 123.711 36.0871 123.581 35.7125C123.466 35.3379 123.408 34.8553 123.408 34.2646V26.7223L121.312 26.4846C121.038 26.4558 120.901 26.3261 120.901 26.0956V25.5121C120.901 25.2528 121.038 25.1231 121.312 25.1231H123.408V23.0053C123.408 22.7603 123.538 22.6163 123.797 22.573L124.921 22.4002H124.986C125.072 22.4002 125.144 22.4362 125.202 22.5082C125.274 22.5658 125.31 22.6523 125.31 22.7675V25.1231H127.644C127.759 25.1231 127.86 25.1664 127.946 25.2528C128.033 25.3392 128.076 25.4401 128.076 25.5554V26.2901C128.076 26.4054 128.033 26.5062 127.946 26.5927C127.86 26.6791 127.759 26.7223 127.644 26.7223H125.31V34.2646C125.31 34.8553 125.396 35.2299 125.569 35.3883C125.742 35.5468 126.045 35.6261 126.477 35.6261H127.687C127.99 35.6261 128.141 35.7269 128.141 35.9286V36.685ZM139.057 31.8874C139.057 32.6798 138.956 33.4001 138.754 34.0485C138.553 34.6968 138.25 35.2515 137.847 35.7125C137.443 36.1735 136.939 36.5337 136.334 36.793C135.729 37.038 135.03 37.1604 134.238 37.1604C133.445 37.1604 132.747 37.038 132.141 36.793C131.551 36.5337 131.054 36.1735 130.65 35.7125C130.247 35.2515 129.944 34.6968 129.743 34.0485C129.541 33.4001 129.44 32.6798 129.44 31.8874V30.2449C129.44 29.4525 129.541 28.7322 129.743 28.0838C129.944 27.4355 130.247 26.8808 130.65 26.4198C131.054 25.9588 131.551 25.6058 132.141 25.3609C132.747 25.1015 133.445 24.9719 134.238 24.9719C135.03 24.9719 135.729 25.1015 136.334 25.3609C136.939 25.6058 137.443 25.9588 137.847 26.4198C138.25 26.8808 138.553 27.4355 138.754 28.0838C138.956 28.7322 139.057 29.4525 139.057 30.2449V31.8874ZM137.155 30.2449C137.155 29.1356 136.925 28.2567 136.464 27.6084C136.003 26.9601 135.261 26.6359 134.238 26.6359C133.229 26.6359 132.494 26.9601 132.033 27.6084C131.572 28.2423 131.342 29.1212 131.342 30.2449V31.8874C131.342 32.9967 131.565 33.8756 132.012 34.5239C132.473 35.1722 133.215 35.4964 134.238 35.4964C135.246 35.4964 135.981 35.1794 136.442 34.5455C136.917 33.8972 137.155 33.0111 137.155 31.8874V30.2449ZM146.943 26.2469C146.943 26.4918 146.792 26.6143 146.489 26.6143C145.985 26.6143 145.495 26.6863 145.02 26.8304C144.559 26.9601 144.055 27.1906 143.507 27.522V36.5769C143.507 36.6922 143.464 36.793 143.377 36.8795C143.291 36.9659 143.19 37.0092 143.075 37.0092H142.016C141.901 37.0092 141.8 36.9659 141.713 36.8795C141.641 36.793 141.605 36.6922 141.605 36.5769V25.5554C141.605 25.4401 141.641 25.3392 141.713 25.2528C141.8 25.1664 141.901 25.1231 142.016 25.1231H143.032C143.147 25.1231 143.241 25.1664 143.313 25.2528C143.399 25.3392 143.442 25.4401 143.442 25.5554V26.0092C143.99 25.6346 144.508 25.3681 144.998 25.2096C145.502 25.0511 146 24.9719 146.489 24.9719C146.792 24.9719 146.943 25.1015 146.943 25.3609V26.2469ZM157.627 31.1958C157.627 31.5128 157.49 31.6713 157.217 31.6713H149.977V31.9738C149.977 33.2561 150.229 34.1637 150.733 34.6968C151.238 35.2299 151.987 35.4964 152.981 35.4964C153.615 35.4964 154.285 35.4748 154.991 35.4316C155.711 35.3883 156.323 35.3307 156.828 35.2587H156.936C157.022 35.2587 157.101 35.2803 157.173 35.3235C157.246 35.3667 157.282 35.446 157.282 35.5612V36.296C157.282 36.4401 157.253 36.5553 157.195 36.6418C157.137 36.7138 157.022 36.7642 156.849 36.793C156.23 36.9083 155.61 36.9947 154.991 37.0524C154.386 37.1244 153.716 37.1604 152.981 37.1604C152.361 37.1604 151.756 37.0812 151.166 36.9227C150.575 36.7498 150.049 36.4689 149.588 36.0799C149.141 35.6765 148.774 35.1434 148.486 34.4807C148.212 33.8179 148.075 32.9823 148.075 31.9738V30.0288C148.075 28.4728 148.486 27.241 149.307 26.3333C150.128 25.4257 151.317 24.9719 152.873 24.9719C153.665 24.9719 154.357 25.0943 154.948 25.3392C155.538 25.5698 156.028 25.9083 156.417 26.355C156.82 26.7872 157.123 27.3202 157.325 27.9542C157.526 28.5737 157.627 29.2652 157.627 30.0288V31.1958ZM155.704 30.0288C155.704 28.8042 155.466 27.9326 154.991 27.4139C154.53 26.8952 153.824 26.6359 152.873 26.6359C151.936 26.6359 151.216 26.9096 150.712 27.4571C150.222 28.0046 149.977 28.8618 149.977 30.0288V30.2233H155.704V30.0288Z" fill="white"/>
<path d="M43.4783 37.5386C42.4255 36.9079 40.2359 35.5946 40.2359 32.1786C40.2359 29.2955 42.1691 27.8404 43.2073 27.0588L43.229 27.0424C43.6459 26.7287 43.7452 26.1446 43.4559 25.7108C41.1361 22.2343 37.1521 22.1339 36.3775 22.1484H36.3729C35.8416 22.149 35.3346 22.21 34.854 22.3065C35.0315 22.1648 35.2038 22.0138 35.3695 21.8537C37.0291 20.251 37.9411 17.8863 37.8708 15.3642C37.8556 14.8319 37.419 14.4073 36.8851 14.4073C35.09 14.4073 33.049 15.4777 31.5584 17.2012C30.0566 18.9377 29.355 21.0182 29.6344 22.9083C29.6575 23.0652 29.718 23.2083 29.8047 23.331C29.5417 23.2431 29.2636 23.1407 28.9887 23.0396C27.9446 22.6557 26.7603 22.2205 25.6517 22.2205C25.6294 22.2205 23.3753 22.237 21.1246 23.6322C19.1559 24.8536 16.8085 27.3955 16.8085 32.573C16.8085 35.2658 17.8625 39.0356 19.4939 42.178C20.6209 44.349 22.9598 47.9928 25.9634 48.0099H25.9956C28.1859 48.0099 30.0007 46.7189 31.2349 46.7189C33.343 46.7189 34.0932 48.0243 36.3729 48.0243C38.4165 48.0243 40.397 46.4748 42.2598 43.4197C42.9437 42.2974 43.4756 41.1876 43.8011 40.4539C44.4225 39.056 44.4225 38.8696 44.4225 38.7331C44.4225 38.105 43.9425 37.8169 43.4783 37.5386ZM33.0517 18.4875C33.8611 17.5516 34.8809 16.8573 35.8469 16.5508C35.6621 18.0793 35.0151 19.4569 33.9979 20.4387C33.2851 21.1271 32.4296 21.5747 31.561 21.729C31.6531 20.6474 32.1712 19.5054 33.0517 18.4875ZM40.4792 42.5508C39.0714 44.8111 37.613 46.0554 36.3729 46.0554C34.6666 46.0554 33.869 44.75 31.2349 44.75C29.4576 44.75 27.7618 46.0502 25.9746 46.041C24.5806 46.0331 22.7684 44.206 21.2456 41.2723C19.7484 38.3892 18.7811 34.9744 18.7811 32.573C18.7811 29.1734 19.9009 26.7405 22.1076 25.3413C23.8258 24.2525 25.5834 24.1914 25.6577 24.1894C27.1976 24.1934 29.3353 25.5539 30.893 25.5539C32.2955 25.5539 34.1734 24.1173 36.3801 24.1173H36.4163C36.9515 24.1068 39.4785 24.1665 41.2538 26.0894C39.9992 27.1441 38.2633 29.0408 38.2633 32.1786C38.2633 36.4406 40.9638 38.3117 42.2395 39.0921C41.9219 39.8599 41.3163 41.2073 40.4792 42.5508Z" fill="white"/>
</svg>
