<svg width="208" height="63" viewBox="0 0 208 63" fill="none" xmlns="http://www.w3.org/2000/svg">
<rect opacity="0.3" x="0.895134" y="0.600304" width="206.505" height="61.231" rx="9.00456" stroke="white" stroke-width="1.20061"/>
<path d="M82.671 36.3608C82.671 36.6346 82.5413 36.793 82.282 36.8363C81.7489 36.9227 81.151 36.9947 80.4882 37.0524C79.8399 37.1244 79.0043 37.1604 77.9814 37.1604C77.3042 37.1604 76.6271 37.0452 75.9499 36.8147C75.2872 36.5697 74.6893 36.1879 74.1562 35.6693C73.6376 35.1362 73.2126 34.4447 72.8812 33.5946C72.5498 32.7302 72.3841 31.6785 72.3841 30.4394V27.5436C72.3841 26.2325 72.557 25.1447 72.9028 24.2803C73.2486 23.4159 73.6952 22.7243 74.2427 22.2057C74.7902 21.687 75.4097 21.3268 76.1012 21.1251C76.7928 20.909 77.4843 20.8009 78.1759 20.8009C79.1844 20.8009 80.0128 20.837 80.6611 20.909C81.3239 20.9666 81.8641 21.0315 82.282 21.1035C82.3828 21.1179 82.4692 21.1467 82.5413 21.1899C82.6133 21.2332 82.6493 21.3124 82.6493 21.4277V22.5082C82.6493 22.6523 82.5557 22.7243 82.3684 22.7243H82.282C81.965 22.6955 81.6552 22.6739 81.3527 22.6595C81.0645 22.6307 80.762 22.6163 80.445 22.6163C80.1281 22.6019 79.7823 22.5947 79.4077 22.5947C79.0475 22.5802 78.6369 22.573 78.1759 22.573C77.6716 22.573 77.189 22.6523 76.7279 22.8108C76.2669 22.9548 75.8563 23.2214 75.4961 23.6104C75.1503 23.985 74.8694 24.4964 74.6533 25.1447C74.4516 25.7787 74.3507 26.5783 74.3507 27.5436V30.4394C74.3507 31.3327 74.4444 32.0963 74.6317 32.7302C74.819 33.3497 75.0783 33.8612 75.4097 34.2646C75.741 34.668 76.1228 34.9633 76.5551 35.1506C77.0017 35.3235 77.4771 35.4099 77.9814 35.4099C78.6441 35.4099 79.1988 35.3955 79.6454 35.3667C80.092 35.3379 80.445 35.3091 80.7044 35.2803V29.0995C80.7044 28.9843 80.7404 28.8834 80.8124 28.797C80.8844 28.7106 80.9781 28.6673 81.0934 28.6673H82.2603C82.3756 28.6673 82.4692 28.7106 82.5413 28.797C82.6277 28.8834 82.671 28.9843 82.671 29.0995V36.3608ZM95.0606 31.8874C95.0606 32.6798 94.9598 33.4001 94.7581 34.0485C94.5564 34.6968 94.2538 35.2515 93.8504 35.7125C93.447 36.1735 92.9427 36.5337 92.3376 36.793C91.7325 37.038 91.0338 37.1604 90.2414 37.1604C89.449 37.1604 88.7502 37.038 88.1451 36.793C87.5544 36.5337 87.0574 36.1735 86.6539 35.7125C86.2505 35.2515 85.948 34.6968 85.7463 34.0485C85.5446 33.4001 85.4437 32.6798 85.4437 31.8874V30.2449C85.4437 29.4525 85.5446 28.7322 85.7463 28.0838C85.948 27.4355 86.2505 26.8808 86.6539 26.4198C87.0574 25.9588 87.5544 25.6058 88.1451 25.3609C88.7502 25.1015 89.449 24.9719 90.2414 24.9719C91.0338 24.9719 91.7325 25.1015 92.3376 25.3609C92.9427 25.6058 93.447 25.9588 93.8504 26.4198C94.2538 26.8808 94.5564 27.4355 94.7581 28.0838C94.9598 28.7322 95.0606 29.4525 95.0606 30.2449V31.8874ZM93.1588 30.2449C93.1588 29.1356 92.9283 28.2567 92.4673 27.6084C92.0063 26.9601 91.2643 26.6359 90.2414 26.6359C89.2329 26.6359 88.4981 26.9601 88.037 27.6084C87.576 28.2423 87.3455 29.1212 87.3455 30.2449V31.8874C87.3455 32.9967 87.5688 33.8756 88.0154 34.5239C88.4765 35.1722 89.2184 35.4964 90.2414 35.4964C91.2499 35.4964 91.9846 35.1794 92.4457 34.5455C92.9211 33.8972 93.1588 33.0111 93.1588 31.8874V30.2449ZM106.837 31.8874C106.837 32.6798 106.736 33.4001 106.534 34.0485C106.333 34.6968 106.03 35.2515 105.627 35.7125C105.223 36.1735 104.719 36.5337 104.114 36.793C103.509 37.038 102.81 37.1604 102.018 37.1604C101.225 37.1604 100.526 37.038 99.9214 36.793C99.3307 36.5337 98.8336 36.1735 98.4302 35.7125C98.0268 35.2515 97.7243 34.6968 97.5226 34.0485C97.3209 33.4001 97.22 32.6798 97.22 31.8874V30.2449C97.22 29.4525 97.3209 28.7322 97.5226 28.0838C97.7243 27.4355 98.0268 26.8808 98.4302 26.4198C98.8336 25.9588 99.3307 25.6058 99.9214 25.3609C100.526 25.1015 101.225 24.9719 102.018 24.9719C102.81 24.9719 103.509 25.1015 104.114 25.3609C104.719 25.6058 105.223 25.9588 105.627 26.4198C106.03 26.8808 106.333 27.4355 106.534 28.0838C106.736 28.7322 106.837 29.4525 106.837 30.2449V31.8874ZM104.935 30.2449C104.935 29.1356 104.705 28.2567 104.244 27.6084C103.783 26.9601 103.041 26.6359 102.018 26.6359C101.009 26.6359 100.274 26.9601 99.8133 27.6084C99.3523 28.2423 99.1218 29.1212 99.1218 30.2449V31.8874C99.1218 32.9967 99.3451 33.8756 99.7917 34.5239C100.253 35.1722 100.995 35.4964 102.018 35.4964C103.026 35.4964 103.761 35.1794 104.222 34.5455C104.697 33.8972 104.935 33.0111 104.935 31.8874V30.2449ZM119.218 26.1605C119.218 26.3045 119.182 26.4054 119.11 26.463C119.038 26.5062 118.945 26.5423 118.829 26.5711L118.051 26.7223C118.253 26.924 118.426 27.1978 118.57 27.5436C118.714 27.8893 118.786 28.3576 118.786 28.9483V29.1212C118.786 30.317 118.404 31.2318 117.641 31.8658C116.877 32.4997 115.66 32.8166 113.988 32.8166C113.412 32.8166 112.929 32.7806 112.54 32.7086C112.151 32.6221 111.799 32.5141 111.482 32.3844C111.121 32.5573 110.941 32.8022 110.941 33.1192C110.941 33.3065 110.992 33.4506 111.093 33.5514C111.193 33.6523 111.366 33.7387 111.611 33.8107L114.831 34.632C115.364 34.7616 115.876 34.9057 116.366 35.0642C116.87 35.2227 117.317 35.4244 117.705 35.6693C118.094 35.8998 118.404 36.1879 118.635 36.5337C118.865 36.8795 118.981 37.3045 118.981 37.8088V37.9816C118.981 39.019 118.599 39.833 117.835 40.4237C117.086 41.0288 115.825 41.3313 114.053 41.3313C112.339 41.3313 111.078 41.0216 110.271 40.4021C109.479 39.797 109.083 38.9613 109.083 37.8952V37.7007C109.083 37.0956 109.22 36.5553 109.493 36.0799C109.767 35.6044 110.084 35.2299 110.444 34.9561L110.293 34.8913C109.947 34.7328 109.695 34.4951 109.537 34.1781C109.378 33.8612 109.299 33.537 109.299 33.2056V33.184C109.299 32.8959 109.371 32.6077 109.515 32.3196C109.659 32.0314 109.882 31.8009 110.185 31.628C109.854 31.3111 109.601 30.9509 109.429 30.5475C109.27 30.1441 109.191 29.6686 109.191 29.1212V28.9483C109.191 28.4728 109.263 28.0046 109.407 27.5436C109.565 27.0825 109.825 26.6719 110.185 26.3117C110.559 25.9516 111.049 25.6634 111.654 25.4473C112.274 25.2312 113.052 25.1231 113.988 25.1231H118.721C118.851 25.1231 118.966 25.1736 119.067 25.2744C119.168 25.3609 119.218 25.4689 119.218 25.5986V26.1605ZM116.906 28.9483C116.906 28.6313 116.863 28.3288 116.776 28.0406C116.69 27.7525 116.539 27.5075 116.322 27.3058C116.106 27.1041 115.804 26.9457 115.415 26.8304C115.04 26.7007 114.565 26.6359 113.988 26.6359C113.383 26.6359 112.886 26.7007 112.497 26.8304C112.123 26.9601 111.827 27.133 111.611 27.3491C111.41 27.5508 111.265 27.7957 111.179 28.0838C111.107 28.3576 111.071 28.6457 111.071 28.9483V29.1212C111.071 29.3661 111.107 29.6182 111.179 29.8775C111.251 30.1369 111.388 30.3746 111.59 30.5907C111.806 30.8068 112.101 30.9869 112.476 31.131C112.865 31.2606 113.369 31.3255 113.988 31.3255C114.565 31.3255 115.04 31.2751 115.415 31.1742C115.804 31.0589 116.106 30.9077 116.322 30.7204C116.539 30.5187 116.69 30.2882 116.776 30.0288C116.863 29.7551 116.906 29.4525 116.906 29.1212V28.9483ZM117.079 37.8088C117.079 37.3909 116.877 37.0668 116.474 36.8363C116.085 36.6058 115.408 36.368 114.442 36.1231L112 35.4964C111.683 35.7701 111.424 36.0655 111.222 36.3824C111.035 36.6994 110.941 37.1388 110.941 37.7007V37.8952C110.941 38.1978 110.992 38.4715 111.093 38.7164C111.193 38.9613 111.359 39.163 111.59 39.3215C111.835 39.4944 112.151 39.6241 112.54 39.7105C112.944 39.8114 113.448 39.8618 114.053 39.8618C114.673 39.8618 115.177 39.8186 115.566 39.7321C115.955 39.6457 116.258 39.5232 116.474 39.3647C116.704 39.2063 116.863 39.0118 116.949 38.7813C117.036 38.5507 117.079 38.2842 117.079 37.9816V37.8088ZM123.575 36.5769C123.575 36.6922 123.539 36.793 123.467 36.8795C123.395 36.9659 123.301 37.0092 123.186 37.0092H122.062C121.947 37.0092 121.853 36.9659 121.781 36.8795C121.709 36.793 121.673 36.6922 121.673 36.5769V21.1683C121.673 21.0531 121.709 20.9594 121.781 20.8874C121.853 20.8009 121.947 20.7577 122.062 20.7577H123.186C123.301 20.7577 123.395 20.8009 123.467 20.8874C123.539 20.9594 123.575 21.0531 123.575 21.1683V36.5769ZM135.896 31.1958C135.896 31.5128 135.759 31.6713 135.486 31.6713H128.246V31.9738C128.246 33.2561 128.498 34.1637 129.002 34.6968C129.507 35.2299 130.256 35.4964 131.25 35.4964C131.884 35.4964 132.554 35.4748 133.26 35.4316C133.98 35.3883 134.592 35.3307 135.097 35.2587H135.205C135.291 35.2587 135.37 35.2803 135.442 35.3235C135.514 35.3667 135.55 35.446 135.55 35.5612V36.296C135.55 36.4401 135.522 36.5553 135.464 36.6418C135.406 36.7138 135.291 36.7642 135.118 36.793C134.499 36.9083 133.879 36.9947 133.26 37.0524C132.655 37.1244 131.985 37.1604 131.25 37.1604C130.63 37.1604 130.025 37.0812 129.434 36.9227C128.844 36.7498 128.318 36.4689 127.857 36.0799C127.41 35.6765 127.043 35.1434 126.755 34.4807C126.481 33.8179 126.344 32.9823 126.344 31.9738V30.0288C126.344 28.4728 126.755 27.241 127.576 26.3333C128.397 25.4257 129.586 24.9719 131.142 24.9719C131.934 24.9719 132.626 25.0943 133.216 25.3392C133.807 25.5698 134.297 25.9083 134.686 26.355C135.089 26.7872 135.392 27.3202 135.594 27.9542C135.795 28.5737 135.896 29.2652 135.896 30.0288V31.1958ZM133.973 30.0288C133.973 28.8042 133.735 27.9326 133.26 27.4139C132.799 26.8952 132.093 26.6359 131.142 26.6359C130.205 26.6359 129.485 26.9096 128.981 27.4571C128.491 28.0046 128.246 28.8618 128.246 30.0288V30.2233H133.973V30.0288ZM154.201 25.7715C154.201 26.6791 154.05 27.4427 153.747 28.0622C153.445 28.6673 153.02 29.1644 152.472 29.5534C151.939 29.928 151.305 30.2017 150.57 30.3746C149.836 30.5331 149.029 30.6123 148.15 30.6123C147.804 30.6123 147.43 30.6051 147.026 30.5907C146.623 30.5619 146.277 30.5331 145.989 30.5043V36.5769C145.989 36.6922 145.953 36.793 145.881 36.8795C145.809 36.9659 145.715 37.0092 145.6 37.0092H144.433C144.318 37.0092 144.224 36.9659 144.152 36.8795C144.08 36.793 144.044 36.6922 144.044 36.5769V21.5141C144.044 21.1971 144.217 21.0171 144.562 20.9738C145.024 20.9162 145.578 20.873 146.227 20.8442C146.875 20.8154 147.516 20.8009 148.15 20.8009C149.029 20.8009 149.836 20.8874 150.57 21.0603C151.305 21.2188 151.939 21.4853 152.472 21.8599C153.02 22.2201 153.445 22.7027 153.747 23.3078C154.05 23.8985 154.201 24.6261 154.201 25.4905V25.7715ZM152.234 25.4905C152.234 24.3956 151.903 23.6176 151.24 23.1565C150.578 22.6955 149.547 22.465 148.15 22.465C147.819 22.465 147.437 22.4722 147.005 22.4866C146.587 22.501 146.248 22.5226 145.989 22.5514V28.8834C146.118 28.8834 146.277 28.8906 146.464 28.9051C146.652 28.9195 146.846 28.9339 147.048 28.9483C147.249 28.9483 147.444 28.9555 147.631 28.9699C147.833 28.9699 148.006 28.9699 148.15 28.9699C149.634 28.9699 150.686 28.7178 151.305 28.2135C151.925 27.7092 152.234 26.8952 152.234 25.7715V25.4905ZM158.756 36.5769C158.756 36.6922 158.72 36.793 158.648 36.8795C158.576 36.9659 158.482 37.0092 158.367 37.0092H157.243C157.128 37.0092 157.034 36.9659 156.962 36.8795C156.89 36.793 156.854 36.6922 156.854 36.5769V21.1683C156.854 21.0531 156.89 20.9594 156.962 20.8874C157.034 20.8009 157.128 20.7577 157.243 20.7577H158.367C158.482 20.7577 158.576 20.8009 158.648 20.8874C158.72 20.9594 158.756 21.0531 158.756 21.1683V36.5769ZM170.191 36.5769C170.191 36.6922 170.148 36.793 170.062 36.8795C169.975 36.9659 169.874 37.0092 169.759 37.0092H168.765C168.65 37.0092 168.549 36.9659 168.462 36.8795C168.376 36.793 168.333 36.6922 168.333 36.5769V36.1015C167.814 36.404 167.281 36.6562 166.733 36.8579C166.186 37.0596 165.61 37.1604 165.005 37.1604C164.544 37.1604 164.097 37.11 163.665 37.0092C163.247 36.8939 162.872 36.6994 162.541 36.4257C162.224 36.1519 161.965 35.7917 161.763 35.3451C161.576 34.8985 161.482 34.3366 161.482 33.6595V33.4001C161.482 32.8238 161.568 32.3196 161.741 31.8874C161.929 31.4407 162.224 31.0733 162.627 30.7852C163.045 30.4827 163.585 30.2593 164.248 30.1153C164.911 29.9712 165.725 29.8992 166.69 29.8992H168.289V29.0347C168.289 28.1271 168.117 27.4931 167.771 27.133C167.425 26.7728 166.827 26.5927 165.977 26.5927C165.271 26.5927 164.652 26.6143 164.119 26.6575C163.585 26.6863 163.103 26.7223 162.671 26.7656H162.563C162.462 26.7656 162.368 26.744 162.282 26.7007C162.21 26.6575 162.174 26.5639 162.174 26.4198V25.6634C162.174 25.4329 162.325 25.296 162.627 25.2528C163.074 25.1808 163.557 25.1159 164.075 25.0583C164.608 25.0007 165.242 24.9719 165.977 24.9719C167.475 24.9719 168.549 25.332 169.197 26.0524C169.86 26.7728 170.191 27.7669 170.191 29.0347V36.5769ZM168.289 31.2606H166.69C166.042 31.2606 165.502 31.3039 165.069 31.3903C164.637 31.4623 164.299 31.5848 164.054 31.7577C163.809 31.9162 163.636 32.1323 163.535 32.406C163.434 32.6654 163.384 32.9895 163.384 33.3785V33.6378C163.384 34.4158 163.557 34.9417 163.902 35.2154C164.248 35.4748 164.738 35.6044 165.372 35.6044C165.876 35.6044 166.359 35.5324 166.82 35.3883C167.281 35.2443 167.771 35.0282 168.289 34.74V31.2606ZM181.863 25.4905C181.863 25.5626 181.856 25.613 181.842 25.6418L178.276 38.0897C178.103 38.6804 177.916 39.1775 177.714 39.5809C177.527 39.9843 177.282 40.3084 176.979 40.5533C176.677 40.8127 176.309 41 175.877 41.1152C175.459 41.2305 174.94 41.2881 174.321 41.2881C174.018 41.2881 173.694 41.2665 173.348 41.2233C173.017 41.1945 172.736 41.1513 172.506 41.0936C172.376 41.0648 172.268 41.0288 172.181 40.9856C172.095 40.9423 172.052 40.8631 172.052 40.7478V39.9482C172.052 39.7177 172.189 39.6025 172.462 39.6025H172.527C172.772 39.6313 173.089 39.6601 173.478 39.6889C173.882 39.7177 174.206 39.7321 174.451 39.7321C174.753 39.7321 175.02 39.7033 175.25 39.6457C175.481 39.6025 175.675 39.5088 175.834 39.3647C176.007 39.2351 176.151 39.0478 176.266 38.8029C176.396 38.5723 176.504 38.2698 176.59 37.8952L176.806 37.0092H176.504C176.345 37.0092 176.187 36.9947 176.028 36.9659C175.884 36.9371 175.74 36.8723 175.596 36.7714C175.466 36.6706 175.344 36.5193 175.229 36.3176C175.113 36.1159 175.005 35.8494 174.904 35.518L172.03 25.6418C172.016 25.613 172.009 25.5626 172.009 25.4905C172.009 25.2456 172.138 25.1231 172.398 25.1231H173.586C173.673 25.1231 173.745 25.1592 173.802 25.2312C173.874 25.3032 173.925 25.3825 173.954 25.4689L176.504 34.8481C176.561 35.0642 176.626 35.201 176.698 35.2587C176.77 35.3019 176.842 35.3235 176.914 35.3235H177.26L179.897 25.4473C179.925 25.3609 179.976 25.2888 180.048 25.2312C180.12 25.1592 180.206 25.1231 180.307 25.1231H181.517C181.748 25.1231 181.863 25.2456 181.863 25.4905Z" fill="white"/>
<path d="M51.2061 28.493L27.5965 14.9118C27.0227 14.5817 26.37 14.4073 25.7091 14.4073C25.0396 14.4073 24.3796 14.586 23.8005 14.9241C22.6318 15.6064 21.9058 16.8749 21.9058 18.2347V45.3974C21.9058 46.757 22.6318 48.0255 23.8002 48.7077C24.3793 49.0462 25.0394 49.2249 25.7089 49.2249C26.3695 49.2249 27.0223 49.0504 27.5963 48.7203L51.2056 35.1389C52.3875 34.4589 53.1216 33.1858 53.1216 31.8159C53.1216 30.4461 52.3878 29.173 51.2061 28.493ZM40.9752 25.2817L37.7336 29.8257L29.9796 18.9564L40.9752 25.2817ZM25.5602 46.8904C25.3494 46.8698 25.1426 46.8079 24.9579 46.7C24.4981 46.4315 24.2124 45.9323 24.2124 45.3974V18.2345C24.2124 17.6996 24.4981 17.2004 24.9581 16.9319C25.1421 16.8243 25.3472 16.7602 25.5581 16.7384L36.3138 31.8159L25.5602 46.8904ZM29.9796 44.6756L37.7336 33.8062L40.9752 38.3502L29.9796 44.6756ZM50.0613 33.1234L42.9884 37.1921L39.1532 31.8159L42.9884 26.4398L50.0613 30.5085C50.5263 30.776 50.8152 31.277 50.8152 31.8159C50.8152 32.3549 50.5264 32.856 50.0613 33.1234Z" fill="white"/>
</svg>
