<svg width="763" height="870" viewBox="0 0 763 870" fill="none" xmlns="http://www.w3.org/2000/svg">
<mask id="mask0_7_2671" style="mask-type:luminance" maskUnits="userSpaceOnUse" x="0" y="0" width="763" height="853">
<path d="M-6.10352e-05 0H763V852.755H-6.10352e-05V0Z" fill="white"/>
</mask>
<g mask="url(#mask0_7_2671)">
<path d="M327.592 754.397C327.592 754.397 320.479 793.808 331.254 816.92C342.029 840.032 370.525 834.711 370.525 834.711L379.658 758.939L327.592 754.397Z" fill="#FFB0A0"/>
<path d="M374.06 342.541C374.06 342.541 342.682 364.58 344.955 445.42C350.006 625.65 323.257 763.965 323.257 763.965L381.721 771.263C381.721 771.263 388.792 675.723 404.555 563.064C420.339 450.405 415.878 355.18 374.06 342.541Z" fill="#DFEEEF"/>
<path d="M632.266 704.471L646.893 859.064L502.353 870L481.771 803.061L472.889 870L339.904 863.922L368.21 672.842L632.266 704.471Z" fill="#07003D"/>
<path d="M520.031 720.77C520.031 720.77 449.382 721.716 421.055 716.038C392.728 710.36 409.374 341.636 409.374 341.636L463.061 289.65L554.63 282.436C554.63 282.436 546.359 380.563 545.938 382.393C545.496 384.223 520.031 720.77 520.031 720.77Z" fill="#66657A"/>
<path d="M458.684 289.818C458.684 289.818 387.887 334.822 377.554 339.512C367.221 344.202 353.815 390.7 366 440.478C378.185 490.257 342.071 732.483 342.071 732.483C342.071 732.483 381.237 748.908 415.33 732.483C449.424 716.059 449.213 586.87 442.016 523.359C434.818 459.826 452.707 306.369 458.684 289.818Z" fill="white"/>
<path d="M464.745 272.258C464.745 272.258 450.539 288.072 435.892 304.202C421.244 320.333 411.205 356.841 411.205 356.841L437.975 363.76L409.375 388.66C409.375 388.66 419.013 430.237 443.194 535.03C441.195 450.846 457.947 336.126 464.745 272.258Z" fill="#DFEEEF"/>
<path d="M464.745 272.258C464.745 272.258 450.539 288.072 435.892 304.202C421.244 320.333 413.015 347.062 413.015 347.062L440.543 355.033L411.205 376.336C411.205 376.336 419.013 430.237 443.194 535.03C441.195 450.846 457.947 336.126 464.745 272.258Z" fill="#F0F6F7"/>
<path d="M444.983 126.791L432.419 125.887C432.419 125.887 429.936 158.82 436.797 175.539C452.433 166.391 460.746 126.034 460.283 125.887C459.82 125.74 456.705 122.543 444.983 126.791Z" fill="#07003D"/>
<path d="M565.594 169.966C565.594 169.966 540.024 218.336 536.825 236.275C534.363 228.094 537.983 199.598 537.983 199.598L565.594 169.966Z" fill="#07003D"/>
<path d="M465.671 254.929C465.671 254.929 470.595 292.11 463.04 314.739C479.771 334.738 505.068 324.917 519.505 308.514C533.942 292.11 542.802 283.256 542.802 283.256C542.802 283.256 531.964 238.315 541.161 203.552C524.114 195.665 465.671 254.929 465.671 254.929Z" fill="#FFB0A0"/>
<path d="M502.437 271.101C522.893 259.261 530.112 237.726 538.551 217.348C539.14 212.658 539.982 208.01 541.161 203.531C524.093 195.665 465.65 254.929 465.65 254.929C465.65 254.929 466.744 263.257 467.123 274.445C478.172 278.377 491.157 277.115 502.437 271.101Z" fill="#F7A192"/>
<path d="M445.446 117.811C445.446 117.811 445.341 137.979 434.923 169.251C424.506 200.544 426.148 242.941 446.856 255.728C467.565 268.514 527.039 265.864 539.519 202.9C551.999 139.935 545.875 103.511 524.282 94.2786C502.69 85.0673 450.329 85.9506 445.446 117.811Z" fill="#FFB0A0"/>
<path d="M527.776 232.742C529.649 229.188 531.29 225.297 532.637 220.965C536.131 208.452 534.994 195.623 534.994 195.623C534.994 195.623 532.532 194.319 529.67 193.646C521.441 217.831 504.1 224.687 497.702 218.988C491.304 213.289 481.707 206.875 454.138 207.821C440.69 208.284 432.545 210.387 428.841 214.466C429.431 225.192 431.64 235.16 435.681 242.983C438.922 248.577 442.773 253.204 446.877 255.728C463.608 266.096 505.678 266.306 527.776 232.742Z" fill="#C99893"/>
<path d="M458.2 236.885C458.2 236.885 469.501 241.217 476.004 231.291C473.731 242.815 463.566 243.846 458.2 236.885Z" fill="#B27C79"/>
<path d="M484.085 175.708C484.085 175.708 485.032 184.603 493.577 185.886C502.121 187.169 505.783 178.82 505.783 178.82C505.783 178.82 501.195 184.835 493.998 183.468C486.8 182.08 484.085 175.708 484.085 175.708Z" fill="#F7A192"/>
<path d="M456.285 174.341C456.285 174.341 454.706 180.439 448.645 181.996C442.605 183.552 438.859 176.107 438.859 176.107C438.859 176.107 443.363 181.344 448.161 180.439C452.959 179.535 456.285 174.341 456.285 174.341Z" fill="#F7A192"/>
<path d="M524.282 94.2996C502.689 85.0674 450.329 85.9506 445.446 117.832C445.446 117.832 445.383 127.275 442.016 143.237C464.387 149.21 488.168 146.581 509.655 140.629C509.698 140.082 509.74 139.536 509.803 138.968C509.719 139.536 509.698 140.082 509.655 140.629C509.213 146.476 510.876 151.186 514.748 155.771C526.618 168.621 535.078 182.816 530.511 200.04C534.215 187.59 536.951 172.469 545.18 163.657C548.337 124.625 540.908 101.387 524.282 94.2996Z" fill="#F7A192"/>
<path d="M539.624 180.566C539.624 180.566 552.378 161.092 561.743 170.871C571.087 180.65 555.766 202.458 546.948 205.76C538.13 209.041 535.773 202.037 536.131 197.201C536.488 192.364 536.994 186.202 539.624 180.566Z" fill="#FFB0A0"/>
<path d="M551.957 196.864C551.957 196.864 559.007 188.073 560.606 181.785C562.206 175.497 553.64 173.373 550.694 175.645C547.769 177.895 544.78 185.087 543.665 188.326C542.55 191.564 539.666 199.388 541.055 201.028C542.444 202.647 549.768 199.766 550.042 192.216C550.126 190.092 546.085 188.515 546.085 188.515C548.968 185.382 553.03 185.592 552.925 189.104C554.23 185.297 550.252 181.154 546.969 184.751C551.283 178.042 553.661 176.717 556.292 178.042C558.923 179.346 559.302 185.192 551.957 196.864Z" fill="#F99585"/>
<path d="M484.822 155.792C484.822 155.792 492.693 151.523 498.712 155.876C504.731 160.229 505.91 162.227 506.478 163.342C507.046 164.456 504.752 165.256 498.965 162.627C493.177 159.998 489.221 161.702 485.874 160.923C482.507 160.166 483.054 156.549 484.822 155.792Z" fill="#0E004D"/>
<path d="M453.57 157.201C453.57 157.201 445.888 152.637 439.68 156.738C435.429 159.556 434.713 162.206 435.218 163.784C435.597 164.961 437.533 164.099 440.164 163.153C446.141 160.987 448.898 162.942 452.307 162.311C455.716 161.659 455.295 158.021 453.57 157.201Z" fill="#0E004D"/>
<path d="M457.147 162.837C457.147 162.837 459.968 168.873 459.084 173.205C458.2 177.537 445.257 197.684 441.111 202.542C436.965 207.4 457.547 210.071 466.471 205.529C472.974 201.953 463.293 196.465 463.293 196.465" fill="#FFB0A0"/>
<path d="M457.147 162.837C458.01 164.435 458.705 166.118 459.189 167.884C459.652 169.651 459.988 171.523 459.673 173.457C459.189 175.392 458.389 176.991 457.61 178.652C456.832 180.292 455.948 181.891 455.085 183.468C451.528 189.798 447.719 195.918 443.384 201.806C443.11 202.185 442.815 202.542 442.521 202.9C442.395 203.068 442.184 203.299 442.1 203.426C442.037 203.531 441.932 203.636 441.932 203.678C441.868 203.825 441.868 203.741 441.932 203.867C441.911 203.909 442.037 204.014 442.1 204.098C442.226 204.183 442.289 204.288 442.458 204.393C443.615 205.192 445.362 205.655 447.025 206.012C450.413 206.706 453.97 206.874 457.484 206.706C459.231 206.601 460.978 206.391 462.682 206.033C464.345 205.634 466.134 205.171 467.333 204.183C467.944 203.699 468.28 203.047 468.238 202.311C468.175 201.554 467.775 200.776 467.249 200.082C466.197 198.694 464.808 197.516 463.335 196.465C464.955 197.285 466.492 198.273 467.775 199.64C468.407 200.313 468.996 201.133 469.206 202.164C469.417 203.215 468.933 204.414 468.196 205.108C467.481 205.844 466.576 206.307 465.734 206.706C464.871 207.106 463.987 207.421 463.103 207.695C461.314 208.241 459.483 208.536 457.631 208.746C453.948 209.167 450.245 209.062 446.541 208.452C444.689 208.073 442.837 207.695 440.963 206.496C440.5 206.18 439.995 205.781 439.638 205.087C439.448 204.75 439.343 204.309 439.301 203.888C439.322 203.447 439.385 203.026 439.553 202.689C439.701 202.311 439.89 202.08 440.08 201.806L440.5 201.259C440.774 200.923 441.048 200.586 441.3 200.229C443.447 197.432 445.467 194.446 447.467 191.459C449.487 188.494 451.423 185.466 453.338 182.437C454.285 180.923 455.211 179.388 456.116 177.853C457 176.339 457.926 174.719 458.452 173.184C458.915 171.586 458.81 169.777 458.536 168.032C458.2 166.286 457.737 164.541 457.147 162.837Z" fill="#F99585"/>
<path d="M455.927 172.553C455.927 172.553 453.612 167.464 447.845 167.716C442.079 167.947 439.259 173.941 439.259 173.941C441.195 173.668 442.752 174.509 448.477 174.761C454.201 175.014 455.927 172.553 455.927 172.553Z" fill="white"/>
<mask id="mask1_7_2671" style="mask-type:luminance" maskUnits="userSpaceOnUse" x="439" y="167" width="17" height="8">
<path d="M455.927 172.553C455.927 172.553 453.612 167.464 447.845 167.716C442.079 167.947 439.259 173.941 439.259 173.941C441.195 173.668 442.752 174.509 448.477 174.761C454.201 175.014 455.927 172.553 455.927 172.553Z" fill="white"/>
</mask>
<g mask="url(#mask1_7_2671)">
<path d="M454.012 170.303C454.896 172.532 453.78 175.056 451.549 175.939C449.319 176.822 446.793 175.708 445.909 173.478C445.025 171.249 446.141 168.726 448.372 167.842C450.602 166.959 453.128 168.053 454.012 170.303Z" fill="#0E004D"/>
<path d="M451.907 171.123C452.328 172.196 451.802 173.415 450.729 173.836C449.655 174.257 448.435 173.731 448.014 172.658C447.593 171.586 448.119 170.366 449.192 169.945C450.266 169.525 451.465 170.051 451.907 171.123Z" fill="#05002D"/>
<path d="M452.202 170.029C452.391 170.492 452.16 171.039 451.676 171.207C451.213 171.396 450.665 171.165 450.497 170.681C450.308 170.219 450.539 169.672 451.023 169.504C451.465 169.314 452.012 169.546 452.202 170.029Z" fill="white"/>
</g>
<path d="M438.543 174.425C439.364 172.7 440.479 171.081 441.911 169.756C443.321 168.431 445.131 167.296 447.235 167.106C449.276 166.938 451.339 167.443 453.023 168.557C454.706 169.672 455.927 171.354 456.495 173.184C455.464 171.586 454.075 170.282 452.496 169.441C450.918 168.62 449.108 168.242 447.361 168.41C446.519 168.452 445.678 168.726 444.878 169.104C444.057 169.462 443.321 169.966 442.584 170.513C441.111 171.628 439.785 172.974 438.543 174.425Z" fill="#07003D"/>
<path d="M456.264 171.943C455.569 170.198 454.433 168.641 452.938 167.548C451.465 166.454 449.655 165.908 447.824 165.908C445.993 165.823 444.184 166.349 442.584 167.253C441.006 168.179 439.617 169.504 438.712 171.165C439.364 169.378 440.732 167.884 442.332 166.833C443.952 165.781 445.909 165.214 447.845 165.256C449.782 165.298 451.76 165.887 453.254 167.148C454.748 168.389 455.822 170.114 456.264 171.943Z" fill="#AD625A"/>
<path d="M484.338 173.773C484.338 173.773 487.411 168.705 494.629 169.188C501.848 169.651 505.194 175.834 505.194 175.834C502.774 175.476 501.006 176.275 493.809 176.317C486.611 176.317 484.338 173.773 484.338 173.773Z" fill="white"/>
<mask id="mask2_7_2671" style="mask-type:luminance" maskUnits="userSpaceOnUse" x="484" y="169" width="22" height="8">
<path d="M484.338 173.773C484.338 173.773 487.411 168.705 494.629 169.188C501.848 169.651 505.194 175.834 505.194 175.834C502.774 175.476 501.28 176.275 494.082 176.317C486.885 176.339 484.338 173.773 484.338 173.773Z" fill="white"/>
</mask>
<g mask="url(#mask2_7_2671)">
<path d="M500.459 172.827C500.943 175.182 499.407 177.474 497.05 177.958C494.693 178.442 492.399 176.906 491.915 174.551C491.43 172.196 492.967 169.903 495.324 169.42C497.681 168.936 499.975 170.471 500.459 172.827Z" fill="#0E004D"/>
<path d="M498.228 173.268C498.46 174.404 497.723 175.497 496.587 175.729C495.45 175.96 494.356 175.224 494.124 174.088C493.893 172.953 494.629 171.859 495.766 171.628C496.902 171.417 498.018 172.132 498.228 173.268Z" fill="#05002D"/>
<path d="M498.712 172.238C498.817 172.742 498.502 173.226 497.997 173.31C497.492 173.415 497.008 173.1 496.923 172.595C496.818 172.09 497.134 171.607 497.639 171.523C498.144 171.417 498.628 171.733 498.712 172.238Z" fill="white"/>
</g>
<path d="M484.338 173.773C485.496 171.901 487.284 170.366 489.389 169.483C491.472 168.557 493.872 168.368 496.123 168.705C498.375 169.041 500.564 169.966 502.311 171.439C504.058 172.89 505.362 174.887 505.846 177.033C504.878 175.056 503.384 173.457 501.679 172.259C499.954 171.081 497.975 170.324 495.892 170.008C493.83 169.693 491.725 169.777 489.726 170.45C487.768 171.081 485.895 172.217 484.338 173.773Z" fill="#07003D"/>
<path d="M484.696 171.502C485.664 169.504 487.432 167.947 489.473 167.022C491.536 166.097 493.872 165.929 496.081 166.223C498.291 166.517 500.459 167.338 502.248 168.705C503.994 170.093 505.468 171.901 506.036 174.046C505.657 173.016 505.026 172.111 504.331 171.291C503.637 170.471 502.837 169.735 501.953 169.104C501.048 168.515 500.101 168.011 499.112 167.611C498.102 167.275 497.05 166.98 495.997 166.875C494.945 166.707 493.851 166.686 492.798 166.77C491.746 166.896 490.673 167.106 489.684 167.506C487.663 168.263 485.874 169.651 484.696 171.502Z" fill="#AD625A"/>
<path d="M445.909 220.229C445.909 220.229 463.798 225.045 480.213 219.85C476.509 229.44 459.568 244.561 445.909 220.229Z" fill="#752727"/>
<path d="M454.769 230.723C463.608 236.758 472.363 231.375 477.183 225.108C463.208 223.383 456.537 228.893 454.769 230.723Z" fill="#B23030"/>
<path d="M449.297 220.965C449.782 222.037 451.044 223.867 454.243 224.687C458.115 225.696 469.417 226.748 477.603 224.519C478.74 222.942 479.645 221.322 480.213 219.85C468.133 223.678 455.253 222.079 449.297 220.965Z" fill="white"/>
<path d="M553.114 74.0265C553.114 74.0265 556.734 67.5702 552.188 61.8499C545.791 53.7954 537.899 60.0203 537.899 60.0203C542.465 42.0605 516.18 41.6399 512.307 48.7691C502.563 33.8587 489.957 45.4253 489.094 49.379C477.583 39.3476 471.016 53.6482 471.016 53.6482C455.948 42.6914 439.617 58.8216 443.826 66.4345C429.473 70.3882 433.724 82.2493 433.724 82.2493C421.854 82.2493 420.634 97.7696 426.716 99.8937C406.323 109.336 423.812 122.102 430.441 118.463C423.37 132.764 438.964 139.157 447.909 135.498C447.909 135.498 453.801 146.349 463.251 136.507C468.133 148.284 483.665 142.185 485.79 136.402C490.357 144.919 503.742 145.571 505.846 137.222C508.014 145.824 514.412 141.87 514.412 141.87C512.286 153.437 524.977 158.211 524.977 158.211C520.199 169.861 530.28 170.681 530.28 170.681C529.417 178.357 527.313 196.465 534.195 196.591C541.097 196.738 545.454 183.447 545.454 183.447C553.514 188.473 553.093 177.453 554.146 171.985C560.375 178.378 568.288 174.488 569.509 169.882C575.907 176.528 590.828 162.543 585.651 152.806C599.961 149.756 601.182 132.154 592.953 127.422C607.264 111.124 594.784 105.34 588.386 106.245C599.351 93.7738 582.304 89.5047 578.937 93.7738C580.452 80.9875 575.086 76.5711 569.803 79.7677C568.646 69.7573 556.776 70.0517 553.114 74.0265Z" fill="#07003D"/>
<path d="M466.955 325.275C466.955 325.275 469.333 330.764 472.3 337.725C470.259 344.307 435.892 557.848 435.892 557.848L459.736 595.555L503.426 543.337L492.714 341.132L502.353 330.28L486.969 317.704C486.969 317.683 472.511 316.484 466.955 325.275Z" fill="#07003D"/>
<path d="M469.354 322.478L467.375 326.221C467.375 326.221 476.699 320.627 482.465 320.816C488.231 321.006 488.337 326.494 489.284 331.163C490.231 335.832 479.982 337.935 473.752 337.935C482.907 339.849 487.895 341.657 489.347 345.19C490.441 347.903 485.853 555.346 484.864 565.524L502.353 557.995L492.714 341.132L502.353 330.28L486.969 317.704C486.969 317.683 475.836 316.757 469.354 322.478Z" fill="#07003D"/>
<path d="M466.702 265.906C466.702 265.906 464.724 272.804 461.504 281.742C458.284 290.68 449.676 311.773 457.021 339.491C465.103 324.097 478.361 317.809 486.969 317.662C478.109 307.126 467.291 270.996 466.702 265.906Z" fill="#8C8C9B"/>
<path d="M538.214 252.741C538.214 252.741 540.698 277.746 528.933 287.189C513.696 299.429 494.587 313.982 486.948 317.683C492.335 324.434 509.193 331.794 507.741 347.041C541.497 326.221 546.401 299.218 549.873 278.987C549.495 258.735 538.214 252.741 538.214 252.741Z" fill="#8C8C9B"/>
<path d="M549.873 272.594C549.873 272.594 607.475 298.377 645.84 304.097C636.707 380.101 624.963 486.324 635.928 536.965C646.893 587.606 677.619 738.961 677.619 746.153C588.702 764.302 542.003 747.141 523.735 744.681C505.468 742.199 487.769 723.146 482.002 656.606C476.236 590.066 490.841 435.095 492.672 412.466C494.503 389.859 529.123 364.097 549.873 272.594Z" fill="white"/>
<path d="M481.308 582.538C537.457 589.73 593.311 598.542 649.713 602.874C662.529 665.25 677.619 741.127 677.619 746.174C662.824 749.181 649.25 751.221 636.728 752.504C630.225 710.381 605.917 671.853 557.366 664.913C548.232 663.084 542.76 646.659 531.796 643C514.328 637.174 499.154 649.919 481.708 652.547C480.361 633.83 480.445 609.078 481.308 582.538Z" fill="#F0F6F7"/>
<path d="M544.086 258.525C544.086 258.525 552.504 260.207 565.594 279.24C578.685 298.251 581.421 360.648 581.421 360.648L545.496 362.477L571.024 393.539C571.024 393.539 493.977 445.4 482.739 548.784C478.803 486.934 487.958 413.307 491.915 403.402C495.871 393.518 511.697 360.143 529.375 317.641C547.053 275.139 544.086 258.525 544.086 258.525Z" fill="#DFEEEF"/>
<path d="M544.086 258.525C544.086 258.525 552.504 260.207 565.594 279.24C578.685 298.251 583.546 352.719 583.546 352.719L544.065 356.988L569.235 382.54C569.235 382.54 493.956 445.378 482.718 548.763C478.782 486.913 487.937 413.286 491.894 403.381C495.85 393.497 511.676 360.122 529.354 317.62C547.032 275.118 544.086 258.525 544.086 258.525Z" fill="#F0F6F7"/>
<path d="M673.073 327.504C660.888 305.864 652.975 302.352 643.231 304.097C633.487 305.864 599.372 381.026 603.034 418.964C606.696 456.903 639.569 515.64 668.801 587.333C698.033 659.025 765.946 617.616 750.099 557.974C734.273 498.354 685.258 349.165 673.073 327.504Z" fill="white"/>
<path d="M641.4 313.182C641.4 313.182 616.251 334.78 609.516 373.287C602.782 411.793 616.693 456.588 616.693 456.588C603.034 418.964 582.325 356.988 641.4 313.182Z" fill="#F0F6F7"/>
<path d="M456.769 633.683L472.826 482.118L624.879 431.267L626.605 432.76L591.564 596.144L456.769 633.683Z" fill="#A7DCEA"/>
<path d="M458.494 635.176L474.552 483.611L626.605 432.76L593.29 597.637L458.494 635.176Z" fill="#46AAC1"/>
<path d="M465.944 564.935L458.494 635.176L593.269 597.637L596.784 580.203C551.768 584.83 505.468 585.103 465.944 564.935Z" fill="#1D96AA"/>
<path d="M572.876 572.696C572.876 572.696 549.621 573.894 542.255 566.744C534.889 559.594 524.556 545.882 520.789 543.695C517.022 541.508 506.267 542.307 495.934 538.921C485.601 535.535 481.223 531.182 479.435 533.159C477.646 535.136 476.046 544.683 483.012 549.057C489.978 553.432 495.955 554.82 503.09 556.019C510.245 557.217 513.612 561.571 513.023 561.97C491.157 562.37 481.623 561.171 475.247 558.795C468.891 556.418 464.513 553.621 464.513 553.621C466.492 541.697 466.681 540.078 466.681 540.078C466.681 540.078 457.358 540.519 455.569 542.896C453.78 545.272 451.592 554.21 451.402 557.995C451.213 561.76 442.458 563.758 446.036 574.294C443.447 584.83 448.014 589.793 448.014 589.793C444.626 595.555 453.97 600.329 456.369 601.318C458.747 602.306 508.646 608.678 531.711 610.256C554.777 611.854 576.643 608.468 576.643 608.468L572.876 572.696Z" fill="#F7A192"/>
<path d="M572.876 572.696C572.876 572.696 549.621 573.894 542.255 566.744C534.889 559.594 524.556 545.882 520.789 543.695C517.022 541.508 506.267 542.307 495.934 538.921C485.601 535.535 481.223 531.182 479.435 533.159C477.646 535.136 476.046 544.683 483.012 549.057C489.978 553.432 495.955 554.82 503.09 556.019C510.245 557.217 526.913 563.463 517.674 564.956C495.808 565.356 481.623 561.171 475.247 558.795C468.891 556.418 465.229 553.642 465.229 553.642C466.576 542.938 466.66 540.078 466.66 540.078C466.66 540.078 457.337 540.519 455.548 542.896C453.759 545.272 451.57 554.21 451.381 557.995C451.192 561.76 442.437 563.758 446.014 574.294C443.426 584.83 447.993 589.793 447.993 589.793C444.604 595.555 453.949 600.329 456.348 601.318C458.726 602.306 508.624 608.678 531.69 610.256C554.756 611.854 576.622 608.468 576.622 608.468L572.876 572.696Z" fill="#FFB0A0"/>
<path d="M492.335 537.638C492.335 537.638 491.052 539.342 490.82 541.55C490.589 543.758 488.316 542.833 483.959 540.414C479.603 537.996 478.782 538.185 478.551 536.923C478.319 535.661 478.698 533.411 480.992 532.507C483.286 531.581 492.335 537.638 492.335 537.638Z" fill="#FFC6BD"/>
<path d="M572.876 572.696C572.876 572.696 556.797 573.516 547.138 569.688C555.808 592.737 536.089 605.103 515.485 608.825C521.567 609.435 527.165 609.94 531.732 610.255C554.798 611.854 576.664 608.468 576.664 608.468L572.876 572.696Z" fill="#F7A192"/>
<path d="M452.012 561.781C452.012 561.781 463.545 571.917 471.5 574.504C479.456 577.091 474.489 578.416 469.122 576.229C463.735 574.041 452.012 561.781 452.012 561.781Z" fill="#F9998A"/>
<path d="M446.288 574.273C446.288 574.273 458.978 582.916 467.186 584.493C475.394 586.071 470.995 588.09 465.397 586.575C459.799 585.061 446.288 574.273 446.288 574.273Z" fill="#F9998A"/>
<path d="M448.393 590.087C448.393 590.087 461.062 595.282 468.596 595.198C476.13 595.114 472.49 597.574 467.27 597.28C462.072 596.964 448.393 590.087 448.393 590.087Z" fill="#F9998A"/>
<path d="M550.126 611.244C550.126 611.244 546.275 623.063 550.126 631.307C552.546 636.459 556.924 639.235 561.512 636.459C566.12 633.683 577.653 618.52 577.59 614.104C577.506 609.688 550.126 611.244 550.126 611.244Z" fill="#DFEEEF"/>
<path d="M566.689 569.877L566.352 569.331H557.955L548.421 570.172C548.421 570.172 554.482 574.63 555.535 586.47C556.566 598.31 554.104 610.76 539.393 610.676C542.297 615.892 563.469 620.266 575.675 618.415C584.64 603.252 573.823 572.38 566.689 569.877Z" fill="#66657A"/>
<path d="M566.689 569.877L566.352 569.331H560.586C563.09 570.992 564.458 574.041 565.3 576.565C571.655 591.097 569.046 606.828 560.228 618.226C565.679 618.92 571.256 619.067 575.654 618.415C584.64 603.252 573.823 572.38 566.689 569.877Z" fill="#66657A"/>
<path d="M730.527 556.986C707.987 547.859 672.568 553.285 671.768 553.327C631.045 556.061 592.764 561.97 557.976 569.331C557.976 569.331 576.454 577.07 574.076 602.117C571.697 627.143 561.533 636.48 561.533 636.48C561.533 636.48 689.046 642.768 722.445 624.283C751.846 608.026 752.835 590.193 744.901 567.123C744.88 567.101 738.314 560.14 730.527 556.986Z" fill="white"/>
</g>
<mask id="mask3_7_2671" style="mask-type:luminance" maskUnits="userSpaceOnUse" x="0" y="0" width="763" height="853">
<path d="M0 0H763V852.755H0V0Z" fill="white"/>
</mask>
<g mask="url(#mask3_7_2671)">
<path d="M293.309 164.267C293.309 164.267 313.176 239.492 281.671 277.831C250.145 316.169 172.509 296.085 151.506 293.351C130.502 290.617 131.029 211.396 143.045 158.904C151.99 119.746 293.309 164.267 293.309 164.267Z" fill="#0A0751"/>
<path d="M144.371 195.728C144.371 195.728 135.701 275.391 161.818 295.054C187.956 314.108 249.472 297.241 249.472 297.241C249.472 297.241 271.128 292.005 280.998 245.023C285.081 225.549 279.146 181.575 273.064 168.116C266.982 154.677 245.515 153.731 245.515 153.731L144.371 195.728Z" fill="#07072B"/>
<path d="M245.116 293.835V285.128C241.58 283.193 238.318 280.165 236.255 275.454C229.374 259.766 235.119 236.737 235.119 236.737L176.15 213.772C176.15 213.772 181.222 249.398 176.865 265.633C172.509 281.868 161.755 287.736 161.755 287.736C161.755 287.736 134.122 374.002 196.858 376.294C251.156 378.271 248.756 325.338 252.818 311.752L245.116 293.835Z" fill="#FFB0A0"/>
<path d="M164.869 345.569C180.401 360.059 205.256 359.028 217.693 344.538C236.34 322.814 235.308 280.375 212.516 260.712C201.236 252.258 188.251 245.486 178.212 235.034C177.518 223.467 176.129 213.772 176.129 213.772L240.338 236.716C240.338 236.716 233.056 259.45 239.938 275.16C242.001 279.87 245.452 283.719 248.988 285.654L261.236 306.642V318.671C257.174 332.257 251.134 378.271 196.837 376.294C167.269 375.222 157.777 355.495 156.009 334.949C158.745 338.608 161.692 342.183 164.869 345.569Z" fill="#F7A192"/>
<path d="M265.614 179.178C265.614 179.178 272.201 170.029 278.767 179.178C285.354 188.326 276.073 203.173 267.887 204.54C259.679 205.886 260.037 202.605 260.563 199.43C261.089 196.254 265.614 179.178 265.614 179.178Z" fill="#EA8A7D"/>
<path d="M271.612 201.344C271.612 201.344 272.201 200.04 274.558 198.105C276.915 196.17 277.673 190.071 277.757 186.601C277.841 183.131 275.568 179.64 274.221 178.715C272.874 177.79 267.297 183.573 266.876 185.361C266.455 187.127 264.856 190.071 266.876 192.784C268.897 195.497 268.055 196.422 266.455 197.411C264.856 198.42 266.034 200.124 266.876 200.965C267.718 201.806 268.918 200.271 270.349 198.483C271.78 196.717 269.191 192.364 268.581 191.67C267.971 190.976 272.769 189.356 274.474 195.077C274.642 192.069 271.527 186.896 267.55 190.05C268.812 184.561 271.043 182.122 272.664 180.986C274.305 179.851 275.421 183.51 276.031 187.106C276.641 190.702 276.263 195.35 274.684 196.528C273.148 197.747 272.075 199.913 271.612 201.344Z" fill="#CE5D57"/>
<path d="M156.935 181.176C156.935 181.176 149.569 172.027 142.204 181.176C134.838 190.324 145.171 209.966 154.368 211.312C163.565 212.658 163.186 204.582 162.597 201.407C161.986 198.252 156.935 181.176 156.935 181.176Z" fill="#FFB0A0"/>
<path d="M150.538 201.344C150.538 201.344 149.948 200.04 147.591 198.105C145.234 196.17 144.476 190.071 144.392 186.601C144.308 183.131 146.581 179.64 147.928 178.715C149.275 177.79 154.852 183.573 155.273 185.361C155.694 187.127 157.293 190.071 155.273 192.784C153.252 195.497 154.094 196.422 155.694 197.411C157.293 198.42 156.115 200.124 155.273 200.965C154.431 201.806 153.231 200.271 151.8 198.483C150.369 196.717 152.958 192.364 153.568 191.67C154.178 190.976 149.38 189.356 147.675 195.077C147.507 192.069 150.622 186.896 154.599 190.05C153.337 184.561 151.106 182.122 149.485 180.986C147.844 179.851 146.728 183.51 146.118 187.106C145.508 190.702 145.887 195.35 147.465 196.528C149.022 197.747 150.096 199.913 150.538 201.344Z" fill="#E8867C"/>
<path d="M247.472 120.125C247.472 120.125 266.729 136.549 268.855 168.599C270.959 200.649 266.266 228.473 247.472 242.899C228.679 257.347 210.58 255.98 187.451 243.257C170.194 233.751 157.84 206.538 157.146 186.685C156.451 166.833 155.736 138.19 173.708 120.125C191.681 102.039 232.446 108.958 247.472 120.125Z" fill="#FFB0A0"/>
<path d="M239.938 243.551C258.732 229.103 257.743 209.398 255.617 177.348C253.513 145.298 239.938 120.777 239.938 120.777C231.141 114.257 213.547 109.189 196.858 109.715C215.526 107.023 237.35 112.617 247.472 120.125C247.472 120.125 266.729 136.549 268.855 168.599C270.959 200.65 266.266 228.473 247.472 242.899C238.149 250.071 228.995 253.33 219.314 253.267C226.28 251.984 233.056 248.83 239.938 243.551Z" fill="#F7A192"/>
<path d="M267.424 169.588C267.424 169.588 269.549 191.018 266.961 207.442C271.233 196.191 272.432 173.752 272.285 170.66C272.159 167.569 267.424 169.588 267.424 169.588Z" fill="#0A0751"/>
<path opacity="0.56" d="M172.067 201.343C172.067 206.895 176.571 211.375 182.106 211.375C187.662 211.375 192.144 206.874 192.144 201.343C192.144 195.792 187.641 191.312 182.106 191.312C176.55 191.312 172.067 195.792 172.067 201.343Z" fill="#FF9797"/>
<path d="M207.718 180.503C207.718 180.503 215.463 169.735 205.613 157.58C195.049 156.002 187.935 154.362 183.579 157.58C179.243 160.797 178.633 170.261 181.095 175.666C185.599 171.417 188.503 168.389 198.605 171.207C202.015 172.595 207.065 176.191 207.718 180.503Z" fill="#F7A192"/>
<path d="M236.803 180.776C236.803 180.776 233.625 170.198 240.191 158.904C245.473 156.297 253.471 156.128 253.471 156.128L262.815 178.378C262.815 178.378 249.977 176.423 245.536 176.969C239.538 177.684 236.803 180.776 236.803 180.776Z" fill="#F7A192"/>
<path d="M207.991 176.275C207.991 176.275 204.245 169.945 195.28 170.387C186.315 170.85 182.043 178.484 182.043 178.484C185.052 178.084 187.451 181.428 196.395 181.596C205.34 181.764 207.991 176.275 207.991 176.275Z" fill="white"/>
<mask id="mask4_7_2671" style="mask-type:luminance" maskUnits="userSpaceOnUse" x="182" y="170" width="26" height="12">
<path d="M207.991 176.275C207.991 176.275 204.245 169.945 195.28 170.387C186.315 170.85 182.043 178.484 182.043 178.484C185.052 178.084 187.451 181.428 196.395 181.596C205.34 181.764 207.991 176.275 207.991 176.275Z" fill="white"/>
</mask>
<g mask="url(#mask4_7_2671)">
<path d="M188.588 174.824C187.956 177.748 189.808 180.629 192.734 181.26C195.659 181.891 198.542 180.04 199.173 177.117C199.805 174.193 197.953 171.312 195.027 170.681C192.102 170.051 189.219 171.901 188.588 174.824Z" fill="#0E004D"/>
<path d="M191.323 175.413C191.029 176.822 191.913 178.189 193.323 178.505C194.733 178.799 196.101 177.916 196.416 176.507C196.711 175.098 195.827 173.731 194.417 173.415C193.028 173.121 191.639 174.025 191.323 175.413Z" fill="#05002D"/>
<path d="M190.755 174.13C190.629 174.74 191.008 175.35 191.618 175.476C192.228 175.603 192.839 175.224 192.965 174.614C193.091 174.004 192.712 173.394 192.102 173.268C191.492 173.121 190.881 173.521 190.755 174.13Z" fill="white"/>
</g>
<path d="M207.991 176.275C206.581 173.92 204.393 171.985 201.783 170.871C199.194 169.672 196.227 169.42 193.428 169.798C190.629 170.198 187.893 171.312 185.683 173.079C183.495 174.866 181.832 177.306 181.201 179.977C182.442 177.537 184.315 175.581 186.441 174.109C188.609 172.679 191.071 171.754 193.66 171.417C196.227 171.06 198.858 171.207 201.32 172.069C203.761 172.89 206.076 174.341 207.991 176.275Z" fill="#0A0751"/>
<path d="M182.295 178.925C182.295 178.925 183.726 183.152 189.577 186.664C195.427 190.176 207.318 187.442 208.454 177.327C205.424 183.131 201.531 186.033 193.786 185.592C186.062 185.171 182.295 178.925 182.295 178.925Z" fill="#F7A192"/>
<path d="M207.592 173.457C206.434 170.976 204.266 168.978 201.741 167.8C199.194 166.623 196.29 166.37 193.533 166.686C190.776 167.022 188.061 168.011 185.81 169.672C183.621 171.354 181.748 173.605 181.011 176.254C181.495 174.972 182.295 173.857 183.179 172.847C184.063 171.838 185.073 170.934 186.167 170.177C187.283 169.462 188.482 168.831 189.724 168.368C190.987 167.968 192.292 167.611 193.617 167.506C194.943 167.295 196.29 167.317 197.616 167.422C198.942 167.59 200.247 167.884 201.467 168.389C203.93 169.377 206.139 171.144 207.592 173.457Z" fill="#AD625A"/>
<path d="M234.488 176.444C234.488 176.444 237.729 169.84 246.715 169.588C255.701 169.356 260.542 176.633 260.542 176.633C257.511 176.465 255.365 179.998 246.462 180.839C237.56 181.701 234.488 176.444 234.488 176.444Z" fill="white"/>
<mask id="mask5_7_2671" style="mask-type:luminance" maskUnits="userSpaceOnUse" x="234" y="169" width="27" height="12">
<path d="M234.488 176.444C234.488 176.444 237.729 169.84 246.715 169.588C255.701 169.356 260.542 176.633 260.542 176.633C257.511 176.465 255.365 179.998 246.462 180.839C237.56 181.701 234.488 176.444 234.488 176.444Z" fill="white"/>
</mask>
<g mask="url(#mask5_7_2671)">
<path d="M251.008 173.268C251.871 176.128 250.23 179.136 247.367 179.998C244.505 180.86 241.496 179.22 240.633 176.36C239.77 173.499 241.412 170.492 244.274 169.63C247.136 168.789 250.145 170.408 251.008 173.268Z" fill="#0E004D"/>
<path d="M248.314 174.067C248.735 175.434 247.936 176.885 246.568 177.306C245.2 177.726 243.748 176.927 243.327 175.56C242.906 174.193 243.705 172.742 245.073 172.322C246.441 171.922 247.894 172.7 248.314 174.067Z" fill="#05002D"/>
<path d="M248.777 172.742C248.967 173.352 248.609 173.983 248.02 174.151C247.409 174.341 246.778 173.983 246.61 173.394C246.441 172.805 246.778 172.153 247.367 171.985C247.978 171.796 248.609 172.132 248.777 172.742Z" fill="white"/>
</g>
<path d="M234.488 176.444C235.708 173.983 237.75 171.901 240.254 170.576C242.737 169.188 245.684 168.704 248.504 168.852C251.324 169.02 254.144 169.924 256.48 171.523C258.816 173.121 260.647 175.434 261.489 178.042C260.058 175.708 258.037 173.899 255.807 172.595C253.534 171.333 251.008 170.597 248.399 170.471C245.81 170.303 243.2 170.66 240.822 171.712C238.423 172.742 236.234 174.341 234.488 176.444Z" fill="#0A0751"/>
<path d="M260.289 177.075C260.289 177.075 259.195 181.407 253.639 185.36C248.083 189.314 236.003 187.527 234.088 177.516C237.56 183.068 241.664 185.655 249.346 184.624C257.027 183.594 260.289 177.075 260.289 177.075Z" fill="#F7A192"/>
<path d="M234.656 173.584C235.624 171.018 237.623 168.873 240.064 167.485C242.527 166.097 245.389 165.634 248.146 165.739C250.924 165.865 253.702 166.623 256.08 168.116C258.395 169.63 260.436 171.712 261.362 174.32C260.773 173.079 259.91 172.027 258.942 171.102C257.995 170.156 256.901 169.335 255.743 168.683C254.565 168.053 253.344 167.527 252.06 167.148C250.755 166.833 249.451 166.58 248.104 166.58C246.778 166.475 245.431 166.601 244.126 166.791C242.821 167.064 241.538 167.443 240.359 168.053C237.981 169.251 235.939 171.165 234.656 173.584Z" fill="#AD625A"/>
<path d="M204.33 158.126C204.33 158.126 197.469 155.666 189.009 155.666C180.548 155.666 173.624 161.996 173.624 161.996C181.369 152.595 186.673 151.67 193.133 151.313C199.594 150.955 205.003 152.364 206.645 153.542C208.265 154.719 208.265 157.895 204.33 158.126Z" fill="#0A0751"/>
<path d="M237.771 160.398C237.771 160.398 244.631 157.937 253.092 157.937C261.552 157.937 268.476 164.267 268.476 164.267C260.731 154.867 255.428 153.941 248.967 153.584C242.506 153.226 237.097 154.635 235.456 155.813C233.835 156.991 233.835 160.166 237.771 160.398Z" fill="#0A0751"/>
<path d="M225.354 181.133C225.354 181.133 224.575 186.875 228.532 191.585C228.532 191.585 230.931 194.488 232.194 196.065C233.877 198.168 232.593 200.713 230.215 199.64C229.479 199.304 227.669 197.474 226.553 194.95C225.48 192.448 223.46 185.634 225.354 181.133Z" fill="#FFC6BD"/>
<path d="M234.593 202.542C234.593 202.542 235.392 206.117 228.111 208.977C220.85 211.838 211.632 207.421 212.579 202.059C215.378 204.94 226.848 207.989 234.593 202.542Z" fill="#F7A192"/>
<path d="M229.689 165.676C229.184 168.179 228.742 170.66 228.447 173.184C228.111 175.687 227.879 178.21 227.9 180.713C227.942 183.194 228.111 185.739 229.1 187.905C230.047 190.113 231.815 191.859 233.793 193.373C234.782 194.151 235.813 194.866 236.845 195.728C237.35 196.17 237.855 196.654 238.234 197.306C238.423 197.621 238.57 197.979 238.676 198.42C238.76 198.904 238.654 199.325 238.507 199.703C237.855 201.133 236.718 201.953 235.645 202.689C234.53 203.425 233.351 203.993 232.13 204.435C229.689 205.339 227.122 205.844 224.533 205.886C221.944 205.886 219.356 205.465 217.041 204.393C219.461 205.171 222.008 205.423 224.512 205.213C227.016 205.024 229.458 204.414 231.752 203.447C232.888 202.963 233.982 202.374 234.993 201.68C235.961 201.007 236.929 200.145 237.308 199.219C237.665 198.504 236.845 197.516 235.982 196.759C235.077 195.981 234.003 195.266 232.993 194.467C230.952 192.889 228.974 190.934 227.942 188.431C226.911 185.907 226.764 183.236 226.89 180.671C227.058 175.539 228.153 170.513 229.689 165.676Z" fill="#ED857A"/>
<path d="M217.167 236.716C216.873 236.359 225.985 240.228 232.32 236.716C229.984 240.481 222.934 243.656 217.167 236.716Z" fill="#F7A192"/>
<path d="M240.338 212.91C240.338 212.91 215.189 216.149 201.467 212.91C207.907 226.916 229.984 239.051 240.338 212.91Z" fill="#752727"/>
<path d="M201.846 212.994C214.158 215.749 235.119 213.52 239.496 213.015C238.886 213.772 237.455 215.287 234.972 216.044C231.604 217.074 215.841 217.936 209.738 216.78C205.045 215.896 202.688 213.878 201.846 212.994Z" fill="white"/>
<path d="M221.902 219.682C227.69 218.546 232.088 221.848 233.814 223.446C225.648 231.585 215.042 228.409 207.823 221.638C213.379 218.21 215.126 221.007 221.902 219.682Z" fill="#B23030"/>
<path d="M195.006 109.988C195.006 109.988 196.837 147.359 240.359 168.032C227.543 165.277 194.228 143.721 192.165 109C191.008 98.043 195.006 109.988 195.006 109.988Z" fill="#0A0751"/>
<path d="M194.586 117.223C194.586 117.223 244.526 200.923 301.159 168.053C296.677 124.184 274.937 66.5186 206.434 81.1347C183.6 73.2273 141.383 107.633 141.698 181.87C145.108 177.117 156.388 174.236 157.903 185.802C166.111 154.762 181.495 121.786 194.586 117.223Z" fill="#0A0751"/>
<path d="M157.882 185.781C156.788 177.432 150.601 176.612 145.971 178.61C164.575 120.125 194.586 117.202 194.586 117.202C181.495 121.786 166.111 154.762 157.882 185.781Z" fill="#07072B"/>
<path d="M194.312 199.956C205.045 199.956 213.779 191.228 213.779 180.503C213.779 169.777 205.045 161.05 194.312 161.05C183.579 161.05 174.845 169.777 174.845 180.503C174.845 191.228 183.579 199.956 194.312 199.956ZM194.312 162.879C204.035 162.879 211.948 170.787 211.948 180.503C211.948 190.219 204.035 198.126 194.312 198.126C184.589 198.126 176.676 190.219 176.676 180.503C176.655 170.787 184.568 162.879 194.312 162.879Z" fill="#55556D"/>
<path d="M249.43 199.956C260.163 199.956 268.897 191.228 268.897 180.503C268.897 169.777 260.163 161.05 249.43 161.05C238.697 161.05 229.963 169.777 229.963 180.503C229.963 191.228 238.697 199.956 249.43 199.956ZM249.43 162.879C259.153 162.879 267.066 170.787 267.066 180.503C267.066 190.219 259.153 198.126 249.43 198.126C239.707 198.126 231.794 190.219 231.794 180.503C231.773 170.787 239.686 162.879 249.43 162.879Z" fill="#55556D"/>
<path d="M210.959 172.238C223.649 166.58 232.678 172.111 232.783 172.175L233.751 170.639C233.351 170.387 223.839 164.498 210.222 170.576L210.959 172.238Z" fill="#55556D"/>
<path d="M155.441 179.893L175.771 178.946L175.729 177.138L152.369 178L155.441 179.893Z" fill="#55556D"/>
<path d="M249.156 313.182C249.156 313.182 245.957 341.468 217.693 344.538C189.429 347.609 172.425 323.214 172.425 323.214C172.425 323.214 193.87 384.37 217.104 391.983C240.338 399.596 249.156 313.182 249.156 313.182Z" fill="#8C8C9B"/>
<path d="M323.741 726.384V870L40.1545 861.483L76.1632 693.64L323.741 726.384Z" fill="#07003D"/>
<path d="M241.012 277.263C241.012 277.263 274.831 307.988 293.499 309.081C312.166 310.175 335.779 323.887 341.798 329.922C328.076 359.554 312.713 397.387 319.848 428.113C326.982 458.838 331.38 491.75 323.152 510.951C314.923 530.151 324.793 580.624 332.475 652.211C340.156 723.798 341.798 754.06 341.798 754.06C341.798 754.06 241.327 779.191 217.188 725.985C193.028 672.778 210.601 382.477 210.601 382.477C210.601 382.477 259.826 342.078 241.012 277.263Z" fill="white"/>
<path d="M254.607 583.063C238.149 579.236 221.566 579.089 204.33 578.5C204.372 560.035 204.772 536.334 205.171 518.248H321.11C317.554 538.353 335.653 649.098 341.819 754.06C324.078 643.63 283.776 591.118 254.607 583.063Z" fill="#F0F6F7"/>
<path d="M171.835 277.263C171.835 277.263 164.512 339.954 221.608 382.477C225.733 445.673 223.249 709.813 221.608 713.093C219.966 716.374 227.374 753.408 145.024 759.991C62.6731 766.573 48.6779 728.719 48.6779 728.719C48.6779 728.719 100.555 553.453 103.859 492.57C107.163 431.688 103.038 339.365 88.2222 315.159C121.958 303.319 152.642 298.861 171.835 277.263Z" fill="white"/>
<path d="M100.828 518.269H223.839C223.86 536.965 224.975 560.771 224.891 579.278C173.267 579.278 132.754 576.817 93.6098 556.145C96.5351 542.517 99.0184 529.647 100.828 518.269Z" fill="#F0F6F7"/>
<path d="M224.891 576.691C224.891 576.691 226.638 703.714 217.188 726.006C207.739 748.298 180.569 754.081 180.569 754.081C180.569 754.081 210.159 747.688 214.431 719.087C218.704 690.486 218.704 576.691 218.704 576.691H224.891Z" fill="#F0F6F7"/>
<path d="M262.773 480.793C262.773 480.793 268.813 512.612 262.773 544.978C229.289 557.596 166.7 559.236 139.804 554.294C112.908 549.352 99.1869 548.258 77.2156 543.863C55.2652 539.468 51.9611 493.39 50.8667 468.701C49.7724 444.011 53.6026 408.365 57.4539 395.2C61.3052 382.035 72.5434 318.524 88.2012 315.159C103.838 311.815 115.097 376.82 113.182 400.121C111.267 423.444 112.908 462.392 116.76 467.86C126.356 474.716 155.315 482.665 173.435 483.086C191.534 483.527 234.214 489.016 262.773 480.793Z" fill="white"/>
<path d="M108.3 435.221C108.3 435.221 102.933 431.267 100.429 433.076C97.9242 434.884 103.396 441.383 102.26 440.92C101.123 440.457 95.2935 435.326 91.5895 438.985C87.8855 442.644 103.186 459.763 103.186 459.763C103.186 459.763 95.3356 453.454 92.2419 454.169C89.1482 454.863 91.8841 459.889 93.8203 462.392C95.7565 464.894 99.1237 467.018 99.1237 467.018L119.096 473.748L108.3 435.221Z" fill="#F0F6F7"/>
<path d="M94.4937 327.504C94.4937 327.504 116.149 354.254 112.298 388.639C108.468 423.023 106.826 445.589 103.627 458.27C100.429 470.93 115.497 502.433 116.423 503.8C117.328 505.167 125.557 495.136 125.557 495.136C125.557 495.136 104.553 485.862 112.319 444.621C120.064 403.402 129.661 360.711 94.4937 327.504Z" fill="#F0F6F7"/>
<path d="M113.877 418.102C113.877 418.102 116.36 381.341 93.6941 379.217C71.0282 377.093 74.669 388.975 82.2874 388.66C89.9059 388.344 103.943 402.056 104.217 415.747C95.3777 404.18 73.3221 411.499 76.4368 415.747C79.5515 419.995 95.988 423.339 97.2087 428.828C98.4293 434.295 95.1672 435.137 99.9866 447.797C104.806 460.457 113.287 453.202 113.287 453.202L113.877 418.102Z" fill="#F0F6F7"/>
<path d="M341.819 329.922C341.819 329.922 353.352 344.181 362.675 374.359C371.998 404.538 387.13 447.797 390.518 467.208C397.379 506.24 389.192 521.634 383.489 533.705C377.786 545.777 309.83 565.272 273.106 570.193C236.382 575.135 188.63 570.193 188.63 570.193V518.627C188.63 518.627 267.213 506.009 286.112 498.879C305.011 491.75 314.334 479.931 316.123 474.19C317.911 468.449 317.911 433.58 318.038 409.459C318.206 385.337 326.456 331.016 341.819 329.922Z" fill="#F0F6F7"/>
<path d="M341.819 329.922C341.819 329.922 350.09 344.454 359.434 374.633C368.757 404.811 376.965 448.407 381.342 467.607C385.741 486.808 379.638 513.432 373.955 525.504C368.273 537.575 306.315 559.993 269.591 564.935C232.867 569.877 191.492 567.249 191.492 567.249L188.672 518.627C188.672 518.627 267.255 506.009 286.154 498.879C305.053 491.75 314.376 479.931 316.165 474.19C317.954 468.449 317.954 433.58 318.08 409.459C318.206 385.337 326.456 331.016 341.819 329.922Z" fill="white"/>
<path d="M367.621 477.113L372.503 480.646C372.503 480.646 373.45 483.864 367.621 483.632C361.791 483.401 347.522 483.548 347.186 483.653C346.849 483.759 370.146 500.267 372.082 501.718C374.018 503.148 377.722 505.84 377.722 505.84C377.722 505.84 379.511 513.411 364.779 509.983C368.547 515.809 373.745 518.269 373.745 518.269C373.745 518.269 371.745 523.674 364.779 522.076C357.813 520.477 344.786 512.486 334.642 516.944C342.408 523.211 352.005 538.984 352.005 538.984C352.005 538.984 343.776 539.531 340.009 535.43C336.242 531.329 323.573 521.171 306.21 530.761C288.848 540.351 259.363 541.192 259.363 541.192L253.681 509.163L282.24 485.798C282.24 485.798 320.605 471.645 324.709 470.972C328.792 470.257 367.621 477.113 367.621 477.113Z" fill="#F0F6F7"/>
<path d="M331.991 327.504C331.991 327.504 310.335 354.254 314.186 388.639C318.017 423.023 319.658 445.589 322.857 458.27C326.056 470.93 310.987 502.433 310.061 503.8C309.156 505.167 300.928 495.136 300.928 495.136C300.928 495.136 321.931 485.862 314.165 444.621C306.421 403.402 296.824 360.711 331.991 327.504Z" fill="#F0F6F7"/>
<path d="M115.939 408.87C115.939 408.87 115.939 443.822 138.31 461.719C160.682 479.616 189.472 472.886 216.873 473.748C244.274 474.589 252.039 481.319 280.367 474.295C308.694 467.292 317.217 447.292 316.144 437.45C322.941 466.955 306.842 503.948 306.842 503.948C306.842 503.948 276.705 540.793 213.674 536.692C150.643 532.591 111.057 506.114 105.29 492.423C99.5447 478.711 115.939 408.87 115.939 408.87Z" fill="#F0F6F7"/>
<path d="M149.128 483.254C149.128 483.254 132.102 467.902 126.904 456.924C121.684 445.946 112.635 435.263 106.321 433.328C100.008 431.393 107.353 440.941 111.056 446.703C114.76 452.466 125.262 472.213 128.545 478.585C131.849 484.978 149.128 483.254 149.128 483.254Z" fill="#FFB0A0"/>
<path d="M133.28 485.988C133.28 485.988 122.989 466.03 117.433 455.347C111.877 444.642 101.165 437.66 96.8509 437.45C92.5366 437.24 94.9357 442.245 97.8189 445.273C100.702 448.281 112.361 462.686 116.612 473.517C120.864 484.347 133.28 485.988 133.28 485.988Z" fill="#FFB0A0"/>
<path d="M119.075 471.603C119.075 471.603 106.048 453.454 93.1047 453.896C89.6112 454.358 92.6417 457.807 96.4089 460.205C100.176 462.602 106.679 470.699 109.646 472.991C112.635 475.283 119.075 471.603 119.075 471.603Z" fill="#FFB0A0"/>
<path d="M105.164 432.613C105.164 432.613 104.638 433.622 104.553 434.274C104.469 434.926 109.183 438.691 110.004 439.111C110.825 439.532 111.162 438.018 113.077 437.681C110.488 434.611 107.121 432.508 105.164 432.613Z" fill="#FFC6BD"/>
<path d="M105.311 441.74C105.311 441.74 103.101 442.834 102.133 444.243C100.365 444.474 95.546 439.784 95.0619 439.174C94.5779 438.565 96.8508 436.819 98.2819 436.714C99.6919 436.588 104.68 440.541 105.311 441.74Z" fill="#FFC6BD"/>
<path d="M100.344 455.389C100.344 455.389 95.8196 453.496 94.0728 453.181C92.3261 452.886 91.4421 454.8 92.0945 455.389C92.747 455.957 96.7456 457.976 97.7979 458.291C98.8502 458.585 98.6186 456.398 100.344 455.389Z" fill="#FFC6BD"/>
<path d="M131.008 472.928C131.008 472.928 116.949 450.93 110.004 445.42C115.476 448.806 126.546 463.801 129.808 468.428C133.07 473.054 134.375 474.295 134.143 475.389C133.933 476.482 132.06 474.547 131.008 472.928Z" fill="#F7A192"/>
<path d="M108.3 460.31C108.3 460.31 120.127 471.708 123.01 478.165C125.893 484.621 125.978 479.468 124.841 477.555C123.705 475.662 113.687 462.918 108.3 460.31Z" fill="#F7A192"/>
<path d="M257.827 487.923C257.827 487.923 272.643 484.074 292.678 477.218C312.713 470.362 326.372 464.6 337.484 464.39C348.596 464.179 368.841 473.643 371.998 477.765C375.155 481.887 369.536 481.887 363.496 480.226C357.456 478.585 341.398 473.643 330.833 479.532C349.9 480.772 356.572 483.843 361.917 487.902C367.263 491.939 377.701 503.191 377.701 505.798C377.701 508.406 372.629 509.016 368.02 506.345C363.433 503.674 354.636 496.818 351.142 494.884C347.649 492.97 335.842 492.213 330.77 494.4C342.85 495.094 347.859 495.43 353.141 499.132C358.424 502.833 372.587 513.832 373.724 516.818C374.86 519.804 369.304 521.34 362.296 517.743C355.288 514.147 346.849 507.249 341.819 506.534C336.768 505.819 325.404 507.376 324.288 507.922C336.768 513.306 340.577 516.713 344.786 521.55C349.016 526.387 353.836 534 354.257 536.986C354.678 539.972 349.101 539.867 344.365 534.42C339.63 528.974 331.191 524.031 326.961 523.001C322.731 521.971 315.638 519.91 304.316 523.422C292.994 526.913 269.318 525.882 259.447 520.33C249.598 514.799 257.827 487.923 257.827 487.923Z" fill="#FFB0A0"/>
<path d="M373.092 477.996C373.092 477.996 372.756 479.784 372.04 480.183C371.325 480.583 366.926 477.702 366.674 477.513C366.674 476.945 367.263 476.777 367.579 475.851C367.894 474.947 367.642 474.4 367.642 474.4C367.642 474.4 371.872 476.713 373.092 477.996Z" fill="#FFC6BD"/>
<path d="M354.53 537.281C354.53 537.281 353.247 538.584 352.426 538.521C351.605 538.458 349.585 533.6 349.479 533.306C349.795 532.843 350.384 533.032 351.163 532.444C351.942 531.855 351.879 531.518 351.879 531.518C351.879 531.518 354.236 535.535 354.53 537.281Z" fill="#FFC6BD"/>
<path d="M377.765 505.125C377.765 505.125 377.028 506.829 375.218 507.544C373.198 506.513 370.272 502.328 370.104 501.887C369.936 501.466 372.608 500.499 373.198 498.984C375.891 501.55 377.765 505.125 377.765 505.125Z" fill="#FFC6BD"/>
<path d="M373.724 516.461C373.724 516.461 373.24 518.269 371.556 519.237C369.409 518.522 365.916 514.778 365.684 514.379C365.453 513.979 367.957 512.654 368.315 511.056C371.346 513.222 373.724 516.461 373.724 516.461Z" fill="#FFC6BD"/>
<path d="M256.627 484.41H270.223C270.223 484.41 277.757 511.119 273.127 529.142C255.933 528.91 251.829 524.116 251.829 524.116L256.627 484.41Z" fill="#8C8C9B"/>
<path d="M103.838 467.187C115.16 473.664 156.578 482.749 173.414 483.128C191.534 483.548 231.815 486.177 259.447 483.422C259.447 483.422 263.193 516.208 257.153 548.574C221.397 558.1 166.7 559.236 139.783 554.294C112.887 549.352 99.1658 548.258 77.1945 543.863C60.758 540.582 54.7811 513.958 52.3609 490.425C69.5971 474.8 80.667 465.609 103.838 467.187Z" fill="white"/>
<path d="M121.853 473.748C121.853 473.748 86.8543 465.021 65.5564 487.523C71.9542 470.173 97.1666 455.999 121.853 473.748Z" fill="#F0F6F7"/>
<path d="M237.518 266.39C237.518 266.39 262.709 285.212 276.726 329.943C261.047 333.14 252.797 336.316 252.797 336.316L277.778 349.396C277.778 349.396 262.246 383.486 210.79 388.66C202.73 387.44 202.73 387.44 202.73 387.44C202.73 387.44 257.238 332.488 237.518 266.39Z" fill="#DFEEEF"/>
<path d="M237.518 266.39C237.518 266.39 263.762 278.798 277.778 323.529C262.099 326.726 252.797 336.316 252.797 336.316H277.778C277.778 336.316 262.246 383.507 210.79 388.66C202.73 387.44 202.73 387.44 202.73 387.44C202.73 387.44 250.461 339.344 240.443 279.008C239.98 276.211 239.033 273.94 238.402 270.701C238.171 269.545 237.792 267.715 237.518 266.39Z" fill="#F0F6F7"/>
<path d="M174.34 272.594C174.34 272.594 164.764 279.513 156.872 290.091C148.98 300.669 143.088 330.343 142.982 338.566C156.009 341.132 168.763 342.057 168.763 342.057L141.509 360.921C141.509 360.921 186.125 394.086 215.042 404.138C243.979 414.17 243.979 444.6 243.979 444.6C243.979 444.6 246.105 404.748 215.968 377.346C185.831 349.985 169.079 315.054 174.34 272.594Z" fill="#DFEEEF"/>
<path d="M174.34 272.594C174.34 272.594 164.764 279.513 156.872 290.091C148.98 300.669 143.088 324.118 142.982 332.32C156.009 334.886 168.763 342.057 168.763 342.057L142.982 352.782C142.982 352.782 186.125 394.086 215.042 404.117C243.979 414.148 243.979 444.579 243.979 444.579C243.979 444.579 246.105 404.727 215.968 377.325C185.831 349.985 169.079 315.054 174.34 272.594Z" fill="#F0F6F7"/>
<path d="M254.607 544.199C255.975 543.779 257.153 543.064 258.227 542.16C257.911 544.284 257.553 546.429 257.153 548.574C256.312 548.805 255.428 549.015 254.565 549.226C254.081 549.352 253.555 549.478 253.028 549.604C217.314 558.164 165.669 559.047 139.783 554.294C129.66 552.443 121.411 551.118 113.876 549.962C181.727 556.292 246.42 546.702 254.607 544.199Z" fill="#F0F6F7"/>
<path d="M168.005 600.119L90.8108 596.922L87.633 613.81L168.005 617.006V600.119Z" fill="#F0F6F7"/>
<path d="M321.005 603.463C317.343 603 248.735 603.147 248.735 603.147V618.205L323.762 620.224L321.005 603.463Z" fill="#F0F6F7"/>
<path d="M323.257 603.126C323.257 603.126 296.845 599.173 248.735 603.147C274.305 604.977 311.282 605.839 323.257 603.126Z" fill="#DFEEEF"/>
<path d="M168.005 600.119C168.005 600.119 118.317 595.555 90.8108 596.922C101.649 601.633 145.15 602.243 168.005 600.119Z" fill="#DFEEEF"/>
<path d="M321.489 463.822C321.489 463.822 325.593 417.534 359.392 403.402C338.831 406.578 313.723 437.744 321.489 463.822Z" fill="#F0F6F7"/>
<path d="M269.17 308.24C274.81 329.859 269.949 349.943 262.836 367.567C262.331 366.515 261.426 365.821 260.373 365.464C267.087 348.555 271.527 329.397 266.203 308.997C259.721 284.098 245.515 271.311 237.476 265.78L237.055 261.322C244.61 265.885 261.573 279.092 269.17 308.24Z" fill="#07003D"/>
<path d="M237.876 477.555C238.697 477.681 239.475 477.134 239.602 476.314C239.749 475.473 239.181 474.695 238.36 474.547C233.309 473.664 229.163 471.919 228.953 470.993C228.911 468.07 235.582 405.715 238.171 391.877C240.17 381.152 244.989 368.092 256.543 366.915C260.731 366.494 264.646 367.714 267.844 370.448C272.538 374.464 275.358 381.32 275.779 389.732C276.641 406.872 271.17 470.867 269.065 474.674C267.739 476.209 262.036 476.692 258.437 476.524C257.595 476.482 256.88 477.134 256.838 477.975C256.796 478.816 257.448 479.532 258.29 479.574C259.995 479.658 268.602 479.889 271.464 476.566C274.705 472.781 279.546 403.591 278.851 389.564C278.388 380.311 275.189 372.677 269.844 368.113C265.993 364.812 261.278 363.339 256.227 363.865C245.6 364.959 238.297 374.443 235.161 391.31C232.551 405.232 225.838 468.07 225.88 471.035C225.922 475.073 234.256 476.945 237.813 477.555C237.855 477.555 237.876 477.555 237.876 477.555Z" fill="#07003D"/>
<path d="M262.941 477.218C262.941 477.218 262.857 475.809 261.699 475.788C260.542 475.767 257.28 475.557 256.459 476.272C255.638 476.966 255.912 479.994 256.417 480.478C256.922 480.962 260.71 480.562 261.826 480.583C262.92 480.604 263.088 478.459 262.941 477.218Z" fill="#66657A"/>
<path d="M233.709 473.853C233.709 473.853 234.046 472.739 235.161 473.054C236.276 473.37 239.602 473.895 240.191 474.821C240.78 475.725 239.644 478.396 239.012 478.711C238.381 479.027 234.866 477.702 233.793 477.407C232.741 477.092 233.204 474.989 233.709 473.853Z" fill="#66657A"/>
<path d="M256.185 363.087C261.447 362.54 266.35 364.076 270.37 367.524C275.863 372.235 279.167 380.059 279.651 389.522C279.693 390.49 279.714 391.878 279.693 393.539L275.147 393.16C275.147 391.877 275.126 390.721 275.063 389.753C274.642 381.552 271.927 374.885 267.381 371.015C264.351 368.408 260.626 367.251 256.648 367.672C246.189 368.744 241.454 380.122 239.307 390.216L234.719 389.838C238.065 373.434 245.473 364.181 256.185 363.087Z" fill="#66657A"/>
<path d="M127.745 341.237C143.971 277.158 168.089 265.843 177.244 263.909L176.381 267.231C167.395 269.902 145.76 282.541 130.713 341.973C122.821 373.14 121.263 399.259 122.21 419.364H119.159C118.212 398.986 119.79 372.614 127.745 341.237Z" fill="#07003D"/>
<path d="M119.916 430.047C113.791 430.047 108.826 425.085 108.826 418.964C108.826 412.844 113.791 407.882 119.916 407.882C126.042 407.882 131.007 412.844 131.007 418.964C131.007 425.085 126.042 430.047 119.916 430.047Z" fill="#66657A"/>
<path d="M119.917 425.463C116.325 425.463 113.414 422.553 113.414 418.964C113.414 415.376 116.325 412.466 119.917 412.466C123.508 412.466 126.42 415.376 126.42 418.964C126.42 422.553 123.508 425.463 119.917 425.463Z" fill="#8C8C9B"/>
</g>
</svg>
