<svg width="290" height="649" viewBox="0 0 290 649" fill="none" xmlns="http://www.w3.org/2000/svg">
<path d="M207.399 70.0033C207.399 70.0033 223.675 131.632 197.864 163.041C172.036 194.45 108.432 177.996 91.2252 175.756C74.0181 173.516 74.4492 108.614 84.2941 65.6099C91.6218 33.5292 207.399 70.0033 207.399 70.0033Z" fill="#0A0751"/>
<path d="M85.3803 95.7782C85.3803 95.7782 78.2768 161.042 99.6736 177.152C121.088 192.761 171.485 178.943 171.485 178.943C171.485 178.943 189.226 174.653 197.313 136.163C200.657 120.209 195.795 84.183 190.813 73.1563C185.83 62.1468 168.243 61.3715 168.243 61.3715L85.3803 95.7782Z" fill="#07072B"/>
<path d="M167.916 176.152V169.019C165.019 167.434 162.347 164.953 160.657 161.094C155.019 148.241 159.726 129.375 159.726 129.375L111.415 110.561C111.415 110.561 115.57 139.747 112.001 153.048C108.432 166.349 99.6219 171.156 99.6219 171.156C99.6219 171.156 76.9837 241.83 128.381 243.708C172.864 245.327 170.899 201.962 174.226 190.832L167.916 176.152Z" fill="#FFB0A0"/>
<path d="M102.174 218.536C114.898 230.407 135.26 229.563 145.45 217.692C160.726 199.894 159.881 165.126 141.209 149.016C131.967 142.09 121.329 136.542 113.105 127.98C112.536 118.504 111.398 110.561 111.398 110.561L164.002 129.358C164.002 129.358 158.036 147.983 163.674 160.853C165.364 164.712 168.192 167.865 171.088 169.45L181.123 186.645V196.5C177.795 207.63 172.847 245.327 128.364 243.708C104.139 242.829 96.3632 226.668 94.9149 209.835C97.1563 212.833 99.5702 215.762 102.174 218.536Z" fill="#F7A192"/>
<path d="M184.709 82.2188C184.709 82.2188 190.106 74.7241 195.485 82.2188C200.882 89.7135 193.278 101.877 186.571 102.997C179.847 104.1 180.14 101.412 180.571 98.8105C181.002 96.2089 184.709 82.2188 184.709 82.2188Z" fill="#EA8A7D"/>
<path d="M189.623 100.378C189.623 100.378 190.106 99.3102 192.037 97.7251C193.968 96.14 194.588 91.1436 194.657 88.3007C194.726 85.4579 192.864 82.5979 191.761 81.8398C190.657 81.0817 186.088 85.8197 185.743 87.2842C185.399 88.7315 184.088 91.1436 185.743 93.3661C187.399 95.5887 186.709 96.3468 185.399 97.1565C184.088 97.9835 185.054 99.3791 185.743 100.068C186.433 100.757 187.416 99.4997 188.588 98.0352C189.761 96.588 187.64 93.0215 187.14 92.453C186.64 91.8844 190.571 90.5578 191.968 95.2441C192.106 92.7803 189.554 88.542 186.295 91.1263C187.33 86.6295 189.157 84.6309 190.485 83.7005C191.83 82.7702 192.744 85.7681 193.244 88.7142C193.744 91.6604 193.433 95.4681 192.14 96.4329C190.881 97.4322 190.002 99.2068 189.623 100.378Z" fill="#CE5D57"/>
<path d="M95.6735 83.8556C95.6735 83.8556 89.639 76.3609 83.6044 83.8556C77.5699 91.3503 86.0355 107.442 93.5701 108.545C101.105 109.648 100.794 103.032 100.312 100.43C99.8115 97.8457 95.6735 83.8556 95.6735 83.8556Z" fill="#FFB0A0"/>
<path d="M90.4321 100.378C90.4321 100.378 89.9493 99.3102 88.0183 97.7251C86.0872 96.14 85.4665 91.1436 85.3976 88.3007C85.3286 85.4579 87.1907 82.5979 88.2941 81.8398C89.3976 81.0817 93.9666 85.8197 94.3115 87.2842C94.6563 88.7315 95.9667 91.1436 94.3115 93.3661C92.6563 95.5887 93.3459 96.3468 94.6563 97.1565C95.9666 97.9835 95.0011 99.3791 94.3115 100.068C93.6218 100.757 92.639 99.4997 91.4666 98.0352C90.2941 96.588 92.4149 93.0215 92.9149 92.453C93.4149 91.8844 89.4838 90.5578 88.0872 95.2441C87.9493 92.7803 90.5011 88.542 93.7597 91.1263C92.7252 86.6295 90.8976 84.6309 89.57 83.7005C88.2252 82.7702 87.3114 85.7681 86.8114 88.7142C86.3114 91.6604 86.6217 95.4681 87.9148 96.4329C89.1907 97.4322 90.07 99.2068 90.4321 100.378Z" fill="#E8867C"/>
<path d="M169.847 33.8393C169.847 33.8393 185.623 47.2953 187.364 73.5525C189.088 99.8098 185.243 122.604 169.847 134.423C154.45 146.26 139.622 145.14 120.674 134.716C106.536 126.929 96.4149 104.634 95.8459 88.3696C95.277 72.1053 94.6907 48.6391 109.415 33.8393C124.139 19.0222 157.536 24.6906 169.847 33.8393Z" fill="#FFB0A0"/>
<path d="M163.674 134.957C179.071 123.121 178.261 106.977 176.519 80.7199C174.795 54.4626 163.674 34.3734 163.674 34.3734C156.467 29.0323 142.053 24.8801 128.381 25.3108C143.674 23.1055 161.554 27.6885 169.847 33.8393C169.847 33.8393 185.623 47.2953 187.364 73.5525C189.088 99.8098 185.243 122.604 169.847 134.423C162.209 140.298 154.709 142.969 146.778 142.917C152.485 141.866 158.036 139.282 163.674 134.957Z" fill="#F7A192"/>
<path d="M186.192 74.3624C186.192 74.3624 187.933 91.9189 185.813 105.375C189.313 96.1573 190.295 77.7737 190.175 75.241C190.071 72.7084 186.192 74.3624 186.192 74.3624Z" fill="#0A0751"/>
<path opacity="0.56" d="M108.07 100.378C108.07 104.927 111.76 108.597 116.294 108.597C120.846 108.597 124.519 104.91 124.519 100.378C124.519 95.8298 120.829 92.16 116.294 92.16C111.743 92.16 108.07 95.8298 108.07 100.378Z" fill="#FF9797"/>
<path d="M137.277 83.3043C137.277 83.3043 143.622 74.4829 135.553 64.5245C126.898 63.2323 121.07 61.8884 117.501 64.5245C113.95 67.1605 113.45 74.9136 115.467 79.3415C119.157 75.8613 121.536 73.3803 129.812 75.689C132.605 76.8261 136.743 79.7723 137.277 83.3043Z" fill="#F7A192"/>
<path d="M161.105 83.5282C161.105 83.5282 158.502 74.862 163.881 65.6099C168.209 63.4735 174.761 63.3356 174.761 63.3356L182.416 81.5641C182.416 81.5641 171.899 79.9618 168.261 80.4098C163.347 80.9955 161.105 83.5282 161.105 83.5282Z" fill="#F7A192"/>
<path d="M137.502 79.8412C137.502 79.8412 134.433 74.6552 127.088 75.0171C119.743 75.3961 116.243 81.6503 116.243 81.6503C118.708 81.3229 120.674 84.0624 128.001 84.2002C135.329 84.338 137.502 79.8412 137.502 79.8412Z" fill="white"/>
<mask id="mask0_18_36084" style="mask-type:luminance" maskUnits="userSpaceOnUse" x="116" y="74" width="22" height="11">
<path d="M137.502 79.8412C137.502 79.8412 134.433 74.6552 127.088 75.0171C119.743 75.3961 116.243 81.6503 116.243 81.6503C118.708 81.3229 120.674 84.0624 128.001 84.2002C135.329 84.338 137.502 79.8412 137.502 79.8412Z" fill="white"/>
</mask>
<g mask="url(#mask0_18_36084)">
<path d="M121.605 78.6524C121.088 81.0473 122.605 83.4077 125.001 83.9246C127.398 84.4414 129.76 82.9253 130.277 80.5304C130.795 78.1356 129.277 75.7752 126.881 75.2583C124.484 74.7414 122.122 76.2576 121.605 78.6524Z" fill="#0E004D"/>
<path d="M123.846 79.1349C123.605 80.2892 124.329 81.4091 125.484 81.6676C126.639 81.9088 127.76 81.1851 128.019 80.0308C128.26 78.8764 127.536 77.7565 126.381 77.4981C125.243 77.2569 124.105 77.9978 123.846 79.1349Z" fill="#05002D"/>
<path d="M123.381 78.0839C123.277 78.5835 123.588 79.0832 124.088 79.1866C124.588 79.2899 125.088 78.9798 125.191 78.4802C125.295 77.9805 124.984 77.4809 124.484 77.3775C123.984 77.2569 123.484 77.5842 123.381 78.0839Z" fill="white"/>
</g>
<path d="M137.502 79.8412C136.346 77.9116 134.553 76.3265 132.415 75.4133C130.295 74.4313 127.864 74.2245 125.57 74.5346C123.277 74.862 121.036 75.7751 119.226 77.2224C117.432 78.6869 116.07 80.6855 115.553 82.8736C116.57 80.875 118.105 79.2727 119.846 78.0666C121.622 76.895 123.639 76.137 125.76 75.8613C127.864 75.5684 130.019 75.689 132.036 76.3954C134.036 77.0673 135.933 78.2561 137.502 79.8412Z" fill="#0A0751"/>
<path d="M116.45 82.0121C116.45 82.0121 117.622 85.4751 122.415 88.3524C127.208 91.2297 136.95 88.9899 137.881 80.7026C135.398 85.4579 132.209 87.8355 125.864 87.4737C119.536 87.1291 116.45 82.0121 116.45 82.0121Z" fill="#F7A192"/>
<path d="M137.174 77.5325C136.226 75.4994 134.45 73.8627 132.381 72.8978C130.295 71.933 127.915 71.7262 125.657 71.9847C123.398 72.2603 121.174 73.0701 119.329 74.4312C117.536 75.8096 116.001 77.6531 115.398 79.8239C115.794 78.773 116.45 77.8598 117.174 77.0328C117.898 76.2058 118.725 75.465 119.622 74.8447C120.536 74.2589 121.519 73.742 122.536 73.363C123.57 73.0356 124.639 72.7428 125.726 72.6566C126.812 72.4843 127.915 72.5015 129.001 72.5877C130.088 72.7255 131.157 72.9667 132.157 73.3802C134.174 74.19 135.984 75.6373 137.174 77.5325Z" fill="#AD625A"/>
<path d="M159.209 79.9791C159.209 79.9791 161.864 74.5691 169.226 74.3623C176.588 74.1728 180.554 80.1341 180.554 80.1341C178.071 79.9963 176.312 82.8908 169.019 83.5799C161.726 84.2863 159.209 79.9791 159.209 79.9791Z" fill="white"/>
<mask id="mask1_18_36084" style="mask-type:luminance" maskUnits="userSpaceOnUse" x="159" y="74" width="22" height="10">
<path d="M159.209 79.9791C159.209 79.9791 161.864 74.5691 169.226 74.3623C176.588 74.1728 180.554 80.1341 180.554 80.1341C178.071 79.9963 176.312 82.8908 169.019 83.5799C161.726 84.2863 159.209 79.9791 159.209 79.9791Z" fill="white"/>
</mask>
<g mask="url(#mask1_18_36084)">
<path d="M172.743 77.3774C173.45 79.7206 172.106 82.1843 169.761 82.8907C167.416 83.5971 164.95 82.2533 164.243 79.9101C163.536 77.5669 164.881 75.1032 167.226 74.3968C169.571 73.7076 172.037 75.0342 172.743 77.3774Z" fill="#0E004D"/>
<path d="M170.537 78.0321C170.881 79.152 170.226 80.3408 169.105 80.6854C167.985 81.03 166.795 80.3753 166.45 79.2554C166.105 78.1355 166.761 76.9467 167.881 76.6021C169.002 76.2748 170.192 76.9122 170.537 78.0321Z" fill="#05002D"/>
<path d="M170.916 76.9467C171.071 77.4463 170.778 77.9632 170.295 78.101C169.795 78.2561 169.278 77.9632 169.14 77.4808C169.002 76.9984 169.278 76.4643 169.761 76.3264C170.261 76.1714 170.778 76.447 170.916 76.9467Z" fill="white"/>
</g>
<path d="M159.209 79.979C160.209 77.9632 161.881 76.2575 163.933 75.1721C165.967 74.035 168.381 73.6387 170.692 73.7593C173.002 73.8971 175.312 74.638 177.226 75.9474C179.14 77.2568 180.64 79.152 181.33 81.2884C180.157 79.376 178.502 77.8943 176.674 76.8261C174.812 75.7923 172.743 75.1893 170.605 75.0859C168.485 74.9481 166.347 75.241 164.398 76.1025C162.433 76.9467 160.64 78.2561 159.209 79.979Z" fill="#0A0751"/>
<path d="M180.347 80.4959C180.347 80.4959 179.45 84.0451 174.899 87.2842C170.347 90.5233 160.45 89.0588 158.881 80.8577C161.726 85.4062 165.088 87.5254 171.381 86.6812C177.674 85.837 180.347 80.4959 180.347 80.4959Z" fill="#F7A192"/>
<path d="M159.347 77.6359C160.14 75.5339 161.778 73.7765 163.778 72.6394C165.795 71.5023 168.14 71.1232 170.398 71.2094C172.674 71.3127 174.95 71.933 176.898 73.1563C178.795 74.3968 180.467 76.1025 181.226 78.2389C180.743 77.2224 180.036 76.3609 179.243 75.6028C178.467 74.8275 177.571 74.1556 176.623 73.6215C175.657 73.1046 174.657 72.6739 173.605 72.3637C172.536 72.1053 171.467 71.8985 170.364 71.8985C169.278 71.8124 168.174 71.9158 167.105 72.0708C166.036 72.2948 164.985 72.6049 164.019 73.1046C162.071 74.0867 160.398 75.6545 159.347 77.6359Z" fill="#AD625A"/>
<path d="M134.502 64.9725C134.502 64.9725 128.881 62.9566 121.95 62.9566C115.019 62.9566 109.346 68.1426 109.346 68.1426C115.691 60.4412 120.036 59.6831 125.329 59.3902C130.622 59.0973 135.053 60.2517 136.398 61.2165C137.726 62.1813 137.726 64.7829 134.502 64.9725Z" fill="#0A0751"/>
<path d="M161.898 66.8332C161.898 66.8332 167.519 64.8173 174.45 64.8173C181.381 64.8173 187.054 70.0033 187.054 70.0033C180.709 62.3019 176.364 61.5438 171.071 61.2509C165.778 60.958 161.347 62.1124 160.002 63.0772C158.674 64.042 158.674 66.6436 161.898 66.8332Z" fill="#0A0751"/>
<path d="M151.726 83.8212C151.726 83.8212 151.088 88.5247 154.329 92.3841C154.329 92.3841 156.295 94.7617 157.329 96.0539C158.709 97.7768 157.657 99.8615 155.709 98.9829C155.105 98.7072 153.622 97.2082 152.709 95.1407C151.829 93.0905 150.174 87.5082 151.726 83.8212Z" fill="#FFC6BD"/>
<path d="M159.295 101.36C159.295 101.36 159.95 104.289 153.985 106.633C148.036 108.976 140.484 105.358 141.26 100.964C143.553 103.325 152.95 105.823 159.295 101.36Z" fill="#F7A192"/>
<path d="M155.278 71.1577C154.864 73.208 154.502 75.241 154.26 77.3085C153.985 79.3588 153.795 81.4263 153.812 83.4766C153.847 85.5096 153.985 87.5944 154.795 89.369C155.571 91.178 157.019 92.608 158.64 93.8485C159.45 94.486 160.295 95.0718 161.14 95.7782C161.554 96.14 161.967 96.5363 162.278 97.0704C162.433 97.3288 162.554 97.6217 162.64 97.9835C162.709 98.3798 162.623 98.7244 162.502 99.0345C161.967 100.206 161.036 100.878 160.157 101.481C159.243 102.084 158.278 102.549 157.278 102.911C155.278 103.652 153.174 104.065 151.053 104.1C148.933 104.1 146.812 103.755 144.915 102.877C146.898 103.514 148.984 103.721 151.036 103.549C153.088 103.394 155.088 102.894 156.967 102.101C157.898 101.705 158.795 101.223 159.623 100.654C160.416 100.103 161.209 99.3963 161.519 98.6383C161.812 98.0525 161.14 97.2427 160.433 96.6224C159.691 95.985 158.812 95.3992 157.985 94.7445C156.312 93.4523 154.691 91.85 153.847 89.7997C153.002 87.7322 152.881 85.5441 152.984 83.4421C153.122 79.2382 154.019 75.1204 155.278 71.1577Z" fill="#ED857A"/>
<path d="M145.019 129.358C144.778 129.065 152.243 132.235 157.433 129.358C155.519 132.442 149.743 135.043 145.019 129.358Z" fill="#F7A192"/>
<path d="M164.002 109.854C164.002 109.854 143.398 112.508 132.157 109.854C137.433 121.329 155.519 131.27 164.002 109.854Z" fill="#752727"/>
<path d="M132.467 109.923C142.553 112.18 159.726 110.354 163.312 109.941C162.812 110.561 161.64 111.801 159.605 112.422C156.847 113.266 143.933 113.972 138.933 113.025C135.088 112.301 133.157 110.647 132.467 109.923Z" fill="white"/>
<path d="M148.898 115.402C153.64 114.472 157.243 117.177 158.657 118.486C151.967 125.154 143.278 122.552 137.364 117.005C141.915 114.196 143.346 116.488 148.898 115.402Z" fill="#B23030"/>
<path d="M126.864 25.5348C126.864 25.5348 128.364 56.1511 164.019 73.0874C153.519 70.8303 126.226 53.1704 124.536 24.7251C123.588 15.7487 126.864 25.5348 126.864 25.5348Z" fill="#0A0751"/>
<path d="M126.519 31.4617C126.519 31.4617 167.433 100.034 213.83 73.1046C210.158 37.1645 192.347 -10.0779 136.226 1.89639C117.519 -4.58178 82.932 23.6052 83.1906 84.4242C85.9838 80.5304 95.2253 78.17 96.4667 87.646C103.191 62.2157 115.794 35.2004 126.519 31.4617Z" fill="#0A0751"/>
<path d="M96.4495 87.6287C95.5529 80.7888 90.4839 80.1168 86.6907 81.7536C101.932 33.8393 126.519 31.4444 126.519 31.4444C115.795 35.2004 103.191 62.2157 96.4495 87.6287Z" fill="#07072B"/>
<path d="M126.295 99.2412C135.088 99.2412 142.243 92.0911 142.243 83.3042C142.243 74.5174 135.088 67.3672 126.295 67.3672C117.501 67.3672 110.346 74.5174 110.346 83.3042C110.346 92.0911 117.501 99.2412 126.295 99.2412ZM126.295 68.8662C134.26 68.8662 140.743 75.3444 140.743 83.3042C140.743 91.2641 134.26 97.7423 126.295 97.7423C118.329 97.7423 111.846 91.2641 111.846 83.3042C111.829 75.3444 118.312 68.8662 126.295 68.8662Z" fill="#55556D"/>
<path d="M171.45 99.2412C180.243 99.2412 187.399 92.0911 187.399 83.3042C187.399 74.5174 180.243 67.3672 171.45 67.3672C162.657 67.3672 155.502 74.5174 155.502 83.3042C155.502 92.0911 162.657 99.2412 171.45 99.2412ZM171.45 68.8662C179.416 68.8662 185.899 75.3444 185.899 83.3042C185.899 91.2641 179.416 97.7423 171.45 97.7423C163.485 97.7423 157.002 91.2641 157.002 83.3042C156.985 75.3444 163.467 68.8662 171.45 68.8662Z" fill="#55556D"/>
<path d="M139.933 76.5332C150.329 71.8985 157.726 76.4298 157.812 76.4815L158.605 75.2237C158.278 75.017 150.485 70.1928 139.329 75.1721L139.933 76.5332Z" fill="#55556D"/>
<path d="M94.4494 82.8046L111.105 82.0293L111.07 80.5476L91.9321 81.254L94.4494 82.8046Z" fill="#55556D"/>
<path d="M171.226 192.003C171.226 192.003 168.605 215.176 145.45 217.692C122.295 220.207 108.363 200.221 108.363 200.221C108.363 200.221 125.932 250.324 144.967 256.561C164.002 262.798 171.226 192.003 171.226 192.003Z" fill="#8C8C9B"/>
<path d="M232.33 530.522V648.18L6.10352e-05 641.202L29.5004 503.696L232.33 530.522Z" fill="#07003D"/>
<path d="M164.553 162.576C164.553 162.576 192.261 187.748 207.554 188.643C222.847 189.539 242.192 200.773 247.123 205.718C235.882 229.993 223.295 260.989 229.14 286.161C234.985 311.332 238.589 338.296 231.847 354.026C225.106 369.757 233.192 411.107 239.485 469.755C245.778 528.403 247.123 553.196 247.123 553.196C247.123 553.196 164.812 573.784 145.036 530.195C125.243 486.605 139.639 248.773 139.639 248.773C139.639 248.773 179.967 215.676 164.553 162.576Z" fill="white"/>
<path d="M175.692 413.105C162.209 409.969 148.622 409.849 134.502 409.366C134.536 394.239 134.864 374.822 135.191 360.005H230.175C227.261 376.476 242.089 467.205 247.141 553.196C232.606 462.725 199.588 419.704 175.692 413.105Z" fill="#F0F6F7"/>
<path d="M107.881 162.576C107.881 162.576 101.881 213.936 148.657 248.773C152.036 300.547 150.002 516.945 148.657 519.633C147.312 522.321 153.381 552.662 85.9148 558.054C18.4485 563.447 6.98286 532.434 6.98286 532.434C6.98286 532.434 49.4834 388.846 52.1903 338.968C54.8972 289.09 51.5179 213.453 39.3798 193.623C67.0181 183.923 92.1563 180.27 107.881 162.576Z" fill="white"/>
<path d="M49.7075 360.022H150.485C150.502 375.339 151.416 394.842 151.347 410.004C109.053 410.004 75.863 407.988 43.7937 391.052C46.1902 379.887 48.2247 369.343 49.7075 360.022Z" fill="#F0F6F7"/>
<path d="M151.347 407.885C151.347 407.885 152.778 511.949 145.036 530.212C137.295 548.475 115.036 553.213 115.036 553.213C115.036 553.213 139.278 547.975 142.778 524.543C146.278 501.112 146.278 407.885 146.278 407.885H151.347Z" fill="#F0F6F7"/>
<path d="M182.381 329.32C182.381 329.32 187.33 355.387 182.381 381.903C154.95 392.241 103.674 393.585 81.6389 389.536C59.6042 385.487 48.3627 384.591 30.3625 380.99C12.3795 377.389 9.67256 339.64 8.776 319.413C7.87943 299.186 11.0174 269.982 14.1726 259.197C17.3278 248.411 26.5348 196.379 39.3625 193.623C52.173 190.883 61.3973 244.139 59.8283 263.229C58.2593 282.336 59.6042 314.244 62.7594 318.724C70.6215 324.34 94.3459 330.853 109.191 331.198C124.019 331.559 158.985 336.056 182.381 329.32Z" fill="white"/>
<path d="M55.8283 291.984C55.8283 291.984 51.4317 288.745 49.3799 290.227C47.3282 291.708 51.811 297.032 50.88 296.653C49.9489 296.274 45.173 292.07 42.1385 295.068C39.1039 298.066 51.6386 312.09 51.6386 312.09C51.6386 312.09 45.2075 306.922 42.673 307.508C40.1384 308.076 42.3798 312.194 43.9661 314.244C45.5523 316.294 48.3109 318.035 48.3109 318.035L64.6732 323.548L55.8283 291.984Z" fill="#F0F6F7"/>
<path d="M44.5178 203.736C44.5178 203.736 62.2593 225.652 59.1041 253.821C55.9662 281.991 54.6213 300.478 52.0006 310.867C49.3799 321.239 61.7248 347.048 62.4835 348.168C63.2249 349.288 69.9663 341.07 69.9663 341.07C69.9663 341.07 52.7593 333.472 59.1214 299.685C65.4663 265.916 73.3284 230.941 44.5178 203.736Z" fill="#F0F6F7"/>
<path d="M60.3973 277.959C60.3973 277.959 62.4318 247.843 43.8626 246.103C25.2934 244.363 28.2762 254.097 34.5177 253.839C40.7591 253.58 52.2593 264.814 52.4834 276.03C45.2419 266.554 27.1728 272.55 29.7245 276.03C32.2763 279.51 45.742 282.25 46.742 286.746C47.742 291.226 45.0695 291.915 49.0178 302.287C52.9662 312.659 59.9145 306.715 59.9145 306.715L60.3973 277.959Z" fill="#F0F6F7"/>
<path d="M247.141 205.718C247.141 205.718 256.589 217.399 264.227 242.123C271.865 266.847 284.262 302.287 287.038 318.19C292.659 350.167 285.952 362.779 281.279 372.668C276.607 382.558 220.934 398.529 190.847 402.561C160.761 406.61 121.639 402.561 121.639 402.561V360.315C121.639 360.315 186.019 349.977 201.502 344.137C216.985 338.296 224.623 328.613 226.089 323.91C227.554 319.206 227.554 290.64 227.658 270.878C227.796 251.116 234.554 206.613 247.141 205.718Z" fill="#F0F6F7"/>
<path d="M247.141 205.718C247.141 205.718 253.917 217.623 261.572 242.347C269.21 267.071 275.934 302.787 279.521 318.517C283.124 334.247 278.124 356.059 273.469 365.949C268.814 375.838 218.054 394.205 187.968 398.254C157.881 402.302 123.984 400.149 123.984 400.149L121.674 360.315C121.674 360.315 186.054 349.977 201.537 344.137C217.02 338.296 224.658 328.613 226.123 323.91C227.589 319.206 227.589 290.64 227.692 270.878C227.796 251.116 234.555 206.613 247.141 205.718Z" fill="white"/>
<path d="M268.279 326.305L272.279 329.199C272.279 329.199 273.055 331.835 268.279 331.646C263.503 331.456 251.813 331.577 251.537 331.663C251.261 331.749 270.348 345.274 271.934 346.463C273.52 347.634 276.555 349.84 276.555 349.84C276.555 349.84 278.02 356.042 265.951 353.234C269.038 358.006 273.296 360.022 273.296 360.022C273.296 360.022 271.658 364.45 265.951 363.141C260.244 361.831 249.572 355.284 241.261 358.937C247.624 364.071 255.486 376.993 255.486 376.993C255.486 376.993 248.744 377.441 245.658 374.081C242.572 370.721 232.192 362.4 217.968 370.256C203.744 378.113 179.588 378.802 179.588 378.802L174.933 352.562L198.33 333.42C198.33 333.42 229.761 321.825 233.123 321.274C236.468 320.688 268.279 326.305 268.279 326.305Z" fill="#F0F6F7"/>
<path d="M239.089 203.736C239.089 203.736 221.347 225.652 224.503 253.821C227.641 281.991 228.985 300.478 231.606 310.867C234.227 321.239 221.882 347.048 221.123 348.168C220.382 349.288 213.64 341.07 213.64 341.07C213.64 341.07 230.848 333.472 224.485 299.685C218.14 265.916 210.278 230.941 239.089 203.736Z" fill="#F0F6F7"/>
<path d="M62.087 270.396C62.087 270.396 62.0871 299.031 80.4148 313.693C98.7426 328.355 122.329 322.842 144.778 323.548C167.226 324.237 173.588 329.75 196.795 323.996C220.003 318.259 226.985 301.874 226.106 293.81C231.675 317.983 218.485 348.289 218.485 348.289C218.485 348.289 193.795 378.475 142.157 375.115C90.5184 371.755 58.087 350.064 53.3628 338.847C48.6559 327.614 62.087 270.396 62.087 270.396Z" fill="#F0F6F7"/>
<path d="M89.277 331.335C89.277 331.335 75.3285 318.758 71.0699 309.765C66.794 300.771 59.3801 292.019 54.2076 290.433C49.0351 288.848 55.0525 296.67 58.087 301.391C61.1215 306.112 69.725 322.29 72.4147 327.511C75.1216 332.748 89.277 331.335 89.277 331.335Z" fill="#FFB0A0"/>
<path d="M76.2941 333.575C76.2941 333.575 67.8629 317.225 63.3112 308.472C58.7594 299.703 49.9834 293.983 46.4489 293.81C42.9144 293.638 44.8799 297.739 47.242 300.22C49.6041 302.683 59.1559 314.485 62.6387 323.358C66.1215 332.231 76.2941 333.575 76.2941 333.575Z" fill="#FFB0A0"/>
<path d="M64.6559 321.791C64.6559 321.791 53.9834 306.922 43.3798 307.284C40.5177 307.663 43.0005 310.488 46.0867 312.452C49.173 314.416 54.5006 321.05 56.9316 322.928C59.3799 324.806 64.6559 321.791 64.6559 321.791Z" fill="#FFB0A0"/>
<path d="M53.2593 289.848C53.2593 289.848 52.8282 290.675 52.7592 291.209C52.6903 291.743 56.5524 294.827 57.2248 295.171C57.8972 295.516 58.1731 294.276 59.7421 294C57.6214 291.484 54.8627 289.761 53.2593 289.848Z" fill="#FFC6BD"/>
<path d="M53.3799 297.325C53.3799 297.325 51.5696 298.221 50.7764 299.375C49.3281 299.565 45.3798 295.723 44.9832 295.223C44.5867 294.724 46.4488 293.293 47.6212 293.207C48.7764 293.104 52.8626 296.343 53.3799 297.325Z" fill="#FFC6BD"/>
<path d="M49.3109 308.507C49.3109 308.507 45.604 306.956 44.1729 306.698C42.7419 306.457 42.0177 308.024 42.5522 308.507C43.0867 308.972 46.3626 310.626 47.2247 310.884C48.0868 311.126 47.8971 309.334 49.3109 308.507Z" fill="#FFC6BD"/>
<path d="M74.4321 322.876C74.4321 322.876 62.9147 304.854 57.225 300.34C61.7078 303.114 70.7768 315.399 73.4493 319.189C76.1217 322.979 77.1907 323.996 77.0011 324.892C76.8286 325.788 75.2942 324.203 74.4321 322.876Z" fill="#F7A192"/>
<path d="M55.8283 312.538C55.8283 312.538 65.518 321.877 67.8801 327.166C70.2422 332.455 70.3112 328.234 69.3801 326.666C68.4491 325.116 60.2421 314.675 55.8283 312.538Z" fill="#F7A192"/>
<path d="M178.33 335.16C178.33 335.16 190.468 332.007 206.882 326.391C223.296 320.774 234.485 316.053 243.589 315.881C252.692 315.709 269.279 323.462 271.865 326.839C274.451 330.216 269.848 330.216 264.9 328.855C259.951 327.511 246.796 323.462 238.141 328.286C253.761 329.302 259.227 331.818 263.606 335.143C267.986 338.451 276.538 347.669 276.538 349.805C276.538 351.942 272.382 352.441 268.606 350.253C264.848 348.065 257.641 342.448 254.779 340.863C251.917 339.295 242.244 338.675 238.089 340.467C247.986 341.036 252.089 341.311 256.417 344.344C260.744 347.376 272.348 356.387 273.279 358.833C274.21 361.28 269.658 362.538 263.917 359.591C258.175 356.645 251.261 350.994 247.141 350.408C243.003 349.822 233.692 351.097 232.778 351.545C243.003 355.956 246.123 358.747 249.572 362.71C253.037 366.673 256.986 372.909 257.33 375.356C257.675 377.803 253.106 377.716 249.227 373.254C245.348 368.792 238.434 364.743 234.968 363.899C231.503 363.054 225.692 361.366 216.416 364.243C207.14 367.103 187.743 366.259 179.657 361.711C171.588 357.179 178.33 335.16 178.33 335.16Z" fill="#FFB0A0"/>
<path d="M272.762 327.028C272.762 327.028 272.486 328.493 271.9 328.82C271.314 329.147 267.71 326.787 267.503 326.632C267.503 326.167 267.986 326.029 268.245 325.271C268.503 324.53 268.296 324.082 268.296 324.082C268.296 324.082 271.762 325.977 272.762 327.028Z" fill="#FFC6BD"/>
<path d="M257.555 375.597C257.555 375.597 256.503 376.665 255.831 376.614C255.158 376.562 253.503 372.582 253.417 372.341C253.675 371.962 254.158 372.117 254.796 371.635C255.434 371.152 255.382 370.876 255.382 370.876C255.382 370.876 257.313 374.167 257.555 375.597Z" fill="#FFC6BD"/>
<path d="M276.589 349.254C276.589 349.254 275.986 350.649 274.503 351.235C272.848 350.391 270.451 346.962 270.314 346.601C270.176 346.256 272.365 345.463 272.848 344.223C275.055 346.325 276.589 349.254 276.589 349.254Z" fill="#FFC6BD"/>
<path d="M273.279 358.54C273.279 358.54 272.882 360.022 271.503 360.815C269.745 360.229 266.882 357.162 266.693 356.835C266.503 356.507 268.555 355.422 268.848 354.112C271.331 355.887 273.279 358.54 273.279 358.54Z" fill="#FFC6BD"/>
<path d="M177.347 332.283H188.485C188.485 332.283 194.657 354.164 190.864 368.93C176.778 368.74 173.416 364.812 173.416 364.812L177.347 332.283Z" fill="#8C8C9B"/>
<path d="M52.1731 318.172C61.449 323.479 95.3805 330.922 109.174 331.232C124.019 331.577 157.019 333.73 179.657 331.473C179.657 331.473 182.726 358.334 177.778 384.849C148.485 392.654 103.674 393.585 81.6217 389.536C59.5869 385.487 48.3454 384.591 30.3452 380.99C16.8796 378.302 11.9829 356.49 10.0001 337.211C24.121 324.409 33.1901 316.88 52.1731 318.172Z" fill="white"/>
<path d="M66.9319 323.548C66.9319 323.548 38.2591 316.398 20.8107 334.833C26.0521 320.619 46.7075 309.006 66.9319 323.548Z" fill="#F0F6F7"/>
<path d="M161.692 153.668C161.692 153.668 182.33 169.088 193.813 205.735C180.968 208.354 174.209 210.955 174.209 210.955L194.675 221.672C194.675 221.672 181.95 249.6 139.795 253.839C133.191 252.839 133.191 252.839 133.191 252.839C133.191 252.839 177.847 207.82 161.692 153.668Z" fill="#DFEEEF"/>
<path d="M161.692 153.668C161.692 153.668 183.192 163.833 194.675 200.48C181.83 203.099 174.209 210.955 174.209 210.955H194.675C194.675 210.955 181.95 249.618 139.795 253.839C133.191 252.839 133.191 252.839 133.191 252.839C133.191 252.839 172.295 213.436 164.088 164.006C163.709 161.714 162.933 159.853 162.416 157.2C162.226 156.253 161.916 154.754 161.692 153.668Z" fill="#F0F6F7"/>
<path d="M109.932 158.751C109.932 158.751 102.087 164.419 95.6218 173.085C89.1562 181.752 84.3286 206.062 84.2424 212.799C94.915 214.901 105.363 215.659 105.363 215.659L83.0355 231.113C83.0355 231.113 119.588 258.284 143.278 266.519C166.985 274.738 166.985 299.668 166.985 299.668C166.985 299.668 168.726 267.019 144.036 244.569C119.346 222.154 105.622 193.537 109.932 158.751Z" fill="#DFEEEF"/>
<path d="M109.932 158.751C109.932 158.751 102.087 164.419 95.6218 173.085C89.1562 181.752 84.3286 200.962 84.2424 207.682C94.915 209.784 105.363 215.659 105.363 215.659L84.2424 224.446C84.2424 224.446 119.588 258.284 143.278 266.502C166.985 274.72 166.985 299.651 166.985 299.651C166.985 299.651 168.726 267.002 144.036 244.552C119.346 222.154 105.622 193.537 109.932 158.751Z" fill="#F0F6F7"/>
<path d="M175.692 381.266C176.812 380.921 177.778 380.335 178.657 379.594C178.399 381.335 178.106 383.092 177.778 384.849C177.088 385.039 176.364 385.211 175.657 385.383C175.261 385.487 174.83 385.59 174.399 385.694C145.14 392.706 102.829 393.429 81.6216 389.536C73.3284 388.02 66.5697 386.934 60.3973 385.986C115.984 391.172 168.985 383.316 175.692 381.266Z" fill="#F0F6F7"/>
<path d="M104.743 427.078L41.5006 424.459L38.8971 438.294L104.743 440.913V427.078Z" fill="#F0F6F7"/>
<path d="M230.089 429.817C227.089 429.438 170.881 429.559 170.881 429.559V441.895L232.348 443.549L230.089 429.817Z" fill="#F0F6F7"/>
<path d="M231.934 429.542C231.934 429.542 210.296 426.303 170.881 429.559C191.83 431.058 222.123 431.764 231.934 429.542Z" fill="#DFEEEF"/>
<path d="M104.743 427.078C104.743 427.078 64.0353 423.339 41.5006 424.459C50.38 428.319 86.0183 428.818 104.743 427.078Z" fill="#DFEEEF"/>
<path d="M230.485 315.416C230.485 315.416 233.848 277.494 261.537 265.916C244.692 268.518 224.123 294.052 230.485 315.416Z" fill="#F0F6F7"/>
</svg>
